<svg id="Capa_1" data-name="Capa 1" xmlns="http://www.w3.org/2000/svg" xmlns:xlink="http://www.w3.org/1999/xlink" viewBox="0 0 425.2 321.63"><defs><style>.cls-1{fill:url(#radial-gradient);}.cls-2{fill:url(#linear-gradient);}.cls-3{fill:url(#linear-gradient-2);}.cls-4{fill:url(#linear-gradient-3);}.cls-5{fill:url(#linear-gradient-4);}.cls-6{fill:url(#linear-gradient-5);}.cls-7{fill:url(#linear-gradient-6);}.cls-8{fill:url(#linear-gradient-7);}.cls-9{fill:url(#linear-gradient-8);}.cls-10{fill:url(#linear-gradient-9);}.cls-11{fill:url(#linear-gradient-10);}.cls-12{fill:url(#linear-gradient-11);}.cls-13{fill:url(#linear-gradient-12);}</style><radialGradient id="radial-gradient" cx="212.6" cy="159.34" r="318.02" gradientUnits="userSpaceOnUse"><stop offset="0.37" stop-color="#fff"/><stop offset="0.59" stop-color="#e8e7e9"/><stop offset="1" stop-color="#b2b1b7"/></radialGradient><linearGradient id="linear-gradient" x1="212.6" y1="287.42" x2="212.6" y2="14.26" gradientUnits="userSpaceOnUse"><stop offset="0" stop-color="#000032"/><stop offset="0.03" stop-color="#000438"/><stop offset="0.2" stop-color="#001758"/><stop offset="0.38" stop-color="#002671"/><stop offset="0.57" stop-color="#003182"/><stop offset="0.77" stop-color="#00378d"/><stop offset="1" stop-color="#003990"/></linearGradient><linearGradient id="linear-gradient-2" x1="117.24" y1="169.32" x2="117.24" y2="75.15" gradientUnits="userSpaceOnUse"><stop offset="0" stop-color="#9c9ba0"/><stop offset="0.06" stop-color="#a8a7ac"/><stop offset="0.22" stop-color="#c7c7ca"/><stop offset="0.4" stop-color="#e0e0e1"/><stop offset="0.58" stop-color="#f1f1f2"/><stop offset="0.77" stop-color="#fcfcfc"/><stop offset="1" stop-color="#fff"/></linearGradient><linearGradient id="linear-gradient-3" x1="71.27" y1="169.7" x2="70.35" y2="75.67" gradientUnits="userSpaceOnUse"><stop offset="0" stop-color="#7c0f17"/><stop offset="0.06" stop-color="#880e16"/><stop offset="0.22" stop-color="#a80a12"/><stop offset="0.4" stop-color="#c1070f"/><stop offset="0.58" stop-color="#d2060d"/><stop offset="0.77" stop-color="#dd040b"/><stop offset="1" stop-color="#e0040b"/></linearGradient><linearGradient id="linear-gradient-4" x1="173.51" y1="168.71" x2="172.6" y2="74.68" xlink:href="#linear-gradient-3"/><linearGradient id="linear-gradient-5" x1="185.68" y1="168.59" x2="184.76" y2="74.56" xlink:href="#linear-gradient-3"/><linearGradient id="linear-gradient-6" x1="122.66" y1="169.2" x2="121.74" y2="75.17" xlink:href="#linear-gradient-3"/><linearGradient id="linear-gradient-7" x1="120.13" y1="234.91" x2="120.13" y2="185.7" xlink:href="#linear-gradient-2"/><linearGradient id="linear-gradient-8" x1="299.4" y1="123.15" x2="299.4" y2="97.63" xlink:href="#linear-gradient-2"/><linearGradient id="linear-gradient-9" x1="252.09" y1="169.32" x2="252.09" y2="143.8" xlink:href="#linear-gradient-2"/><linearGradient id="linear-gradient-10" x1="339.81" y1="160.32" x2="339.81" y2="134.81" xlink:href="#linear-gradient-2"/><linearGradient id="linear-gradient-11" x1="299.4" y1="235.82" x2="299.4" y2="210.31" xlink:href="#linear-gradient-2"/><linearGradient id="linear-gradient-12" x1="309.68" y1="179.78" x2="309.68" y2="165.94" xlink:href="#linear-gradient-2"/></defs><rect class="cls-1" y="-53.26" width="425.2" height="425.2"/><path class="cls-2" d="M370.37,135.77s-.68-3.08-.68-3.46a23.55,23.55,0,0,0-.48-2.5c-.19-1-.86-4-1-5a6.1,6.1,0,0,0-.48-2.59,7.2,7.2,0,0,0-2.31-3.08c-1.53-1.25-2.59-5-2.59-5l1-.86.67.86s1-1.63.1-2.5a32.69,32.69,0,0,0-3.36-2.5s.86,1.93-3-.48-6.35-3.07-7.31-3.84-1.34-.58-2.59-2.12a12.29,12.29,0,0,1-1.25-1.53c-1-1.35-.67-1.92-2.4-2.5s-4.43-.1-5-2.31,0-2.78,0-2.78-.61.38-.26-1.25a9.24,9.24,0,0,0-.11-3.66A8,8,0,0,1,339.8,85a4.28,4.28,0,0,0-.5-4.52L338,78.39c-1-1.54-1.16-1-2-2.88s-2.4-1.64-2.4-3.66-1-1.63,0-3.26,1.15-1.64,1.34-2.69a4.61,4.61,0,0,0,.19-2.7c-.28-1.73-.76-1.82-1.15-3.26s-.18-2.41-.81-3.17.52-1.16-1.21-2.41-2.69-1.25-3.27-2.5-.86-3.07-2-3.65,5.47-4.13-1.16-.58-4.61,5-5.57,3.46-1-4-1.64-5.86-2.78-6.53-2.78-7.11-.48-.1,0-1.15.09-1.54.48-2.31.38-1.73.09-3.46.63-1.06-.79-3.27-1.42-1.34-2.57-3.36-1.73-2.4-1.83-3.46.39-2.12,0-3.37a19.58,19.58,0,0,1-.57-2.69,8.47,8.47,0,0,0-2.12-1.63c-1.15-.58-1.53-.77-1.92-.58s-3.65,2.6-3.65,2.6.48,2.59.58,3.46a7.39,7.39,0,0,1-.58,3.55c-.58,1.35-.58,2.79-2,4.91s-2,2.78-2.4,3.55a3,3,0,0,0-.48,1.44c0,.39-1,7.69-.87,10s.48,3,1,5.67-1.44,4.13-2.11,5.86,2,2.6.48,5.86a17.53,17.53,0,0,0-1.83,5.48c-.67,2.69-2.21,4-2.4,5.87s-.19,2.33-.67,3.18a7.8,7.8,0,0,1-1.06,1.91,11.81,11.81,0,0,1-2.69,2.69c-1.15.67-1.06,1.15-3.17,1.63s-3.37,1.45-5.29.39-2.79-1-4.13-2.21-1.92-1.25-3-2.6A13,13,0,0,1,269.84,73c0-.39-.58-1.25-.87-1.25a26.52,26.52,0,0,1-7.69-2.69c-2.88-1.73-5.09-4.14-7-4.52s-3.94-1-5-1.06-4.71-1.54-5.38-2.59-1.16-1.06-1.45-2.41a10.28,10.28,0,0,0-1.15-3.36c-.48-.67-3.84-.09-3.84-.09a5.37,5.37,0,0,0-1-1c-.87-.76-3.66-2.78-3.66-3.07a3.61,3.61,0,0,0,0-1.06,5.54,5.54,0,0,1,0-1.73c.1-.38,4.23-.77,4.23-.77s.39-.19.87-.48a9.07,9.07,0,0,0,1.73-1.25,23.88,23.88,0,0,0,1.92-2.21c.29-.29.86-.29,1-1.25s1.54-.67.1-1.92-.68-.38-1.45-1.25S240,38,240.43,37.25a13,13,0,0,1,1.15-2.11c.29-.29.29-.67,1.15-.58s1.06.39,1.54.1a13.11,13.11,0,0,0,1.83-1.25c.38-.38.28-.48.48-1.06a6.29,6.29,0,0,1,.67-1.63c.29-.39,1.54-1.54,2-2s1.92.19.67-1.34a23.72,23.72,0,0,0-2.21-2.5c-.77-.77-6.34.86-7.69,0s-3.55,1.82-9.23,0-6.05-1.25-8.26-2.41-4.33-1.82-5.19-2.78-8.84-3.75-9.42-4.23a18.77,18.77,0,0,0-2.31-1.35s-1.82-1.05-2.4-.38-1,.67-1.15,1.25,1.15,2.88,1.82,4.23,2.89,1,2.89,1a3.29,3.29,0,0,1,1.34,3.85c-.57,1.92-.48,2.3-1.73,2.5s-6.82-1.06-7.3-1.06-4.23-.87-5.1-.48a38.53,38.53,0,0,0-3.84,1.73c-.29.29.77-1.25-.29.29a46.24,46.24,0,0,1-3.27,4c-.67.77-2,.77-3.26,2.41a19,19,0,0,1-3.17,3.07s-1.35,2.5-1.06,2.89.13,3.26-.58,4-1.22.38-2.05,2.11-1.22,2.31-.7,2.76a5.26,5.26,0,0,0,1.66,1.09,7,7,0,0,1,1.8,1.34,2.77,2.77,0,0,1,.76,1,5.39,5.39,0,0,1,.84,2.82c0,1.34.32,1.79-.51,1.79a3.15,3.15,0,0,1-2.57-1.15,12.28,12.28,0,0,0-3.14-2.44,4.22,4.22,0,0,0-1.6-.32c-.58.07.13-.19-1.09.19s-2,.2-2.24.39a7.5,7.5,0,0,1-.9.51,15.16,15.16,0,0,0-2.11,1c-.58.45-1.28.64-1.67,1.41s1,.26-1.54,1.6-2.94,1.61-2.75.07-.53-2,0-2.63a6.28,6.28,0,0,0,1.26-2.11c0-.45-.52-.84-.9-2.44s-3.72-4.23-4.1-4.8,1.22-2.37-1.92-3.46-3.91-2.31-5-1.09-3.33,3.33-3.78,3.91-3,2.75-4,2.75-1.34-.7-2.75.13a10.18,10.18,0,0,0-2.5,1.79c-.39.45-1.54,1.54-1.6,2.25a6.24,6.24,0,0,0,.44,2.62c.26.32,0,.52-.45,1.16s-.89,1.15-1.34,1.21-.83-.19-1.47.07a20,20,0,0,0-2.05.77c-.45.25-1.54.51-1.8.83a6.32,6.32,0,0,0-1,1.22c-.19.44-.38,3.78,0,4.29s.9-.19.39,1.41-1.22,2.37-1.29,3.14-.89,2-1.92,1.54-1.92-1-2.37-1.16-.57-.51-1.15-.64-2.12-.45-2.44-.19a2.08,2.08,0,0,0-.64,1.35,12.12,12.12,0,0,0,2,3.39c.32.13,1.22,1.31,1.48,1.36s1.41,0,.12.88.84,1.09-1.28.84-6.4-.64-6.85-1a7.8,7.8,0,0,1-1.28-1.16c-.13-.19.51-.51-.52-2s-2.75-1.41-3-.9-.57,5.7-1.41,6.47a10.06,10.06,0,0,0-1.86,1.8c-.44.7-1.15,1.08-1,2.49a7,7,0,0,0,.64,2.63c.39.71.84,1,.84,1.6a2.33,2.33,0,0,1-.39,1.8c-.57,1-1.92,4.42-3.07,5.57A21.35,21.35,0,0,0,100,97.58c-.51.9-.64,1.54-3,3s-4.23,1.92-4.87,2.56a10.92,10.92,0,0,0-2.43,2.43,19.26,19.26,0,0,1-2.18,3.21,5.38,5.38,0,0,1-2.18,1.66,47.62,47.62,0,0,1-8.07,1.8c-1.16,0-3.21-.64-4.62-.13s-6,1.92-7.05,3.08-7.3,1.92-8.07,2.69-6.66,2.56-7.69,3.07a11,11,0,0,0-2.56,1.67c-.9.77-2.82,2.05-4,2.82a16.63,16.63,0,0,0-3,2.3c-.38.52-1.67,1.8-2,2.44s-1.79,1-2.56,1.54S33.73,133,33.73,133L33,134.1l-.77,1.67s1-.9-.77,1.15-3.2,3.33-4.1,1.54-2.18-6.54-3.46-5.51-1.54,6.79-1.41,10.89,2.82,6.79,3.07,8.59,1.16,1.15-.25,3.84-2.62,4-2.85,6-.41,2.44,0,3.72.8.9,1.57,2.56,1.92,4.23,2.56,5.51,4.87,2.57,5.25,3.21,1.67,1.92,1.16,3.07-.39,1.92-2.05,2.69-2.18.64-2.57,1.54a15.88,15.88,0,0,0-.77,3.85,8.9,8.9,0,0,1,0,2.69c-.25,1.41,2.82.25,3.85,1.79a36.17,36.17,0,0,1,2.31,4.1,47.33,47.33,0,0,1,2.43,8.46c0,1,4.1,3.2,4.74,4.23a16.09,16.09,0,0,0,2.44,3.2,8.49,8.49,0,0,1,1.79,2.56,6.33,6.33,0,0,1,.77,1.8,18.53,18.53,0,0,0,1.15,3.33,3.37,3.37,0,0,1,.52,1.28s1.41,8.84,2.3,9.87a17.52,17.52,0,0,1,2.31,3.46c.51,1,1.28,1.66,1.41,2.56s3.84,6.41,3.84,8.08-.13,5-.13,5.76-.51,2.69-.64,3.85a40.61,40.61,0,0,1-.76,4.22c-.26,1,1.15,1.16-.65,2.06a14.33,14.33,0,0,1-4.1,1.15,21.28,21.28,0,0,0,.77,4.87c.64,1.79.9,2.3,1,2.69s-.39-.13.77,1.15,1.41,2,1.92,2.18.9.26,3.33,1.15a19,19,0,0,0,4.61.9c1,.26,1.41-.77,2.57,0s1.79.64,3.58.77,4.23-.26,5.64,0a8.48,8.48,0,0,0,2.7,0s-.77-.16,1.79-.8,4.36-.9,5.12-1.41.52-.25,2.44-2.43,4.36-6,6.41-7.18,2.3-2.18,3.71-2.56a65.49,65.49,0,0,1,7.31-1.41c2.82-.39,7.56-.39,8.84-.9s9,1.15,11.92-.64,5.76-2.82,6.79-3.84,1.79-1.8,1.41-3.46-1.28-3.21-.13-4.49a16.2,16.2,0,0,1,3.84-3.46c1.41-.77-.89-.64,2.82-1.54s6.28-4.23,10.13-4.61,3.71-.51,5.64-.64,3.07-.77,5.12-1.28,6.67-1.8,11.41-3.33,5-1.54,7.3-2.44a40.16,40.16,0,0,1,7.82-1.66c1.79-.26,9.35-1.93,11.28-2.18a60.72,60.72,0,0,1,7.94-.26c.38.13,6.66,7.18,9.48,6.92s2.69.13,3.08.51,2.82,1.8,3.33,2.31.26,1.15.9,1.79a23.66,23.66,0,0,1,2.94,3.72c.65,1.15,1.93,3.84,1.93,3.84s-.26.26.25.9a31.42,31.42,0,0,0,3,2.82c.64.51,1.54.77,1.79,1.15s.64,0,1,2.44.38,3.46.51,5-.64,1.28.51,2.56,1.41,2.18,2.95,2.18,2.18,1.15,2.56-.64.13-2.82.9-4.74.64-3,2.31-4.23.64-2.44,4.74-4.36,5.13-2.05,6-3.46a7.55,7.55,0,0,0,1.54-4.49,30,30,0,0,1,.39-4.22s1.4-.9,2.3,1.66,1.54,2.44.51,4.23a15.86,15.86,0,0,0-1.53,2.95,17.69,17.69,0,0,0-.77,3.33,18.6,18.6,0,0,1-1,4.61,14.32,14.32,0,0,1-1.79,3.72,25.62,25.62,0,0,0-1.8,2.56c-.51.9-1,1.41-1.15,1.8s-.26.89-.64,1.92-1.54,1.41-.13,1.79a11.73,11.73,0,0,0,3.59.52c.39-.13,0,.25,1.28-.39s1.41-2.31,1.8-4.36a13.33,13.33,0,0,1,1.66-5c.9-1.41-1.15-2.7.9-1.41s3.2,2.56,3.2,4.35.26,1.8-.64,3.34a18,18,0,0,0-1.66,3.07c-.52,1.28-.9,2.05-.52,2.43s6.54-.51,6.54-.51,6.41-1.41,6.28-.77-1.16-.76-1.16,1.93-.89,4.22.26,6.79,1.8,3.84,2.18,5,.51.51.77,1.92a21,21,0,0,1,0,4v2.95c0,1.15-1,.25.9,2.43s3.07,4,3.58,4.36-.38-1.28,2.31,0,3.08,1.15,3.72,1.66a73.31,73.31,0,0,0,12.55,4.23,28.16,28.16,0,0,0,4.87.65c1.16,0,1.54-.39,4-1.8s3.33-1.54,5-2.43,1.54-1.41,3.08-1.8,2.82-1,3.08-.13.89,1.67.25,2.82-2.43,2.18-.64,3.34,5.13,1.66,8.07,2.3,3.46.9,5.13.9,1.79,1.92,3.59,0,1.92-3.46,3.07-4.61-.77-2.18,3.85-3.08a44.4,44.4,0,0,1,7.69-1c2.05-.12,10.76-3.2,11.53-4s1.79-.38,2.31-3.33,0-6,1.41-8.84,1.53-5.13,3.71-8.59,3.46-6.66,5-8.2,5.9-11,6.54-12.43.51-4.23,2.17-6.15,5.9-6.28,7.56-8.33A10.83,10.83,0,0,0,391.9,233c.51-1,.64-1.79,1.79-5s1.41-2.69,2.05-6.28.9-6.28,1.15-8.84,7.05-9.87,6-14-2.31-5.51-2.82-7.69a25.72,25.72,0,0,1-1-6.79c0-2.82.39-3.46.51-6a49.21,49.21,0,0,0-.76-8.33c-.26-1.54-4.87-7.18-4.75-9a9,9,0,0,0-1.41-5.25c-1-1.8-2.17-4.36-3.46-4.62a7.15,7.15,0,0,1-4.23-1.79c-1.79-1.54-3.33.9-3.58-3.59s-.13-6.41-.77-7.43.38-1-1.54-2.05-4.68-4-5.06-4-.64,1-.45,2.37.83,2.82.19,3S370.77,137.67,370.37,135.77Z"/><path class="cls-3" d="M136.3,102.35V75.15H122c-1.28.84.84,1.09-1.28.84-1.84-.23-5.32-.55-6.49-.84h-5.82a5.27,5.27,0,0,1-.76,2.31,10.06,10.06,0,0,0-1.86,1.8c-.44.7-1.15,1.08-1,2.49a7,7,0,0,0,.64,2.63c.39.71.84,1,.84,1.6a2.33,2.33,0,0,1-.39,1.8c-.57,1-1.92,4.42-3.07,5.57a14.53,14.53,0,0,0-2,2.77v3.24l-1.41-.79a7.47,7.47,0,0,1-2.37,2c-2.31,1.41-4.23,1.92-4.87,2.56a10.92,10.92,0,0,0-2.43,2.43,19.26,19.26,0,0,1-2.18,3.21,5.38,5.38,0,0,1-2.18,1.66,47.62,47.62,0,0,1-8.07,1.8c-1.16,0-3.21-.64-4.62-.13s-6,1.92-7.05,3.08-7.3,1.92-8.07,2.69-6.66,2.56-7.69,3.07a11,11,0,0,0-2.56,1.67c-.9.77-2.82,2.05-4,2.82a16.63,16.63,0,0,0-3,2.3c-.38.52-1.67,1.8-2,2.44s-1.79,1-2.56,1.54S33.73,133,33.73,133L33,134.1l-.77,1.67s1-.9-.77,1.15-3.2,3.33-4.1,1.54-2.18-6.54-3.46-5.51c-.53.42-.88,1.65-1.11,3.24V142H65.16l-42.8,23.84.06.2c.41,1.28.8.9,1.57,2.56.1.24.22.49.34.75H58.92L100.81,146v23.34H136.3V143l47.26,26.32h28.56v-8L177.32,142h34.8V102.42H179L212.12,84V75.15h-27Z"/><polygon class="cls-4" points="100.81 141.97 89.84 141.97 41.45 169.32 53.49 169.32 100.81 142.58 100.81 141.97"/><polygon class="cls-5" points="154.38 102.42 203.27 75.15 191.1 75.15 142.21 102.42 154.38 102.42"/><polygon class="cls-6" points="158.94 141.97 208.03 169.32 212.12 169.32 212.12 164.81 171.12 141.97 158.94 141.97"/><path class="cls-7" d="M128.16,75.15H122c-1.28.84.84,1.09-1.28.84-1.84-.23-5.32-.55-6.49-.84H109v33.68H87.45a4.84,4.84,0,0,1-2.08,1.56,47.62,47.62,0,0,1-8.07,1.8c-1.16,0-3.21-.64-4.62-.13s-6,1.92-7.05,3.08-7.3,1.92-8.07,2.69-6.66,2.56-7.69,3.07a11,11,0,0,0-2.56,1.67c-.9.77-2.82,2.05-4,2.82a16.63,16.63,0,0,0-3,2.3c-.38.52-1.67,1.8-2,2.44s-1.79,1-2.56,1.54S33.73,133,33.73,133L33,134.1l-.68,1.46H109v33.76h19.21V135.56h84V108.83h-84Z"/><polygon class="cls-8" points="120.13 224.53 108.9 234.91 110.01 219.66 94.9 217.35 107.52 208.71 99.9 195.45 114.52 199.93 120.13 185.7 125.75 199.93 140.37 195.45 132.75 208.71 145.37 217.35 130.25 219.66 131.36 234.91 120.13 224.53"/><polygon class="cls-9" points="299.4 117.77 293.57 123.15 294.15 115.24 286.31 114.04 292.86 109.56 288.9 102.69 296.49 105.01 299.4 97.63 302.31 105.01 309.89 102.69 305.94 109.56 312.48 114.04 304.64 115.24 305.22 123.15 299.4 117.77"/><polygon class="cls-10" points="252.09 163.94 246.26 169.32 246.84 161.41 239 160.21 245.54 155.73 241.59 148.85 249.17 151.18 252.09 143.8 255 151.18 262.58 148.85 258.63 155.73 265.17 160.21 257.33 161.41 257.91 169.32 252.09 163.94"/><polygon class="cls-11" points="339.81 154.94 333.99 160.32 334.56 152.41 326.73 151.22 333.27 146.73 329.32 139.86 336.9 142.18 339.81 134.81 342.72 142.18 350.31 139.86 346.36 146.73 352.9 151.22 345.06 152.41 345.64 160.32 339.81 154.94"/><polygon class="cls-12" points="299.4 230.44 293.57 235.82 294.15 227.91 286.31 226.72 292.86 222.24 288.9 215.36 296.49 217.68 299.4 210.31 302.31 217.68 309.89 215.36 305.94 222.24 312.48 226.72 304.64 227.91 305.22 235.82 299.4 230.44"/><polygon class="cls-13" points="311.93 170.51 316.9 171.37 313.2 174.79 313.92 179.78 309.52 177.32 305 179.54 305.98 174.6 302.47 170.99 307.47 170.4 309.82 165.94 311.93 170.51"/></svg>