<svg xmlns="http://www.w3.org/2000/svg" viewBox="0 0 500 373.06"><defs><style>.cls-1{isolation:isolate;}.cls-2{fill:#85252c;}.cls-3{fill:#b3282e;}.cls-4{fill:#fff;}.cls-5,.cls-6,.cls-7{fill:#d8d8d8;}.cls-6{opacity:0.4;}.cls-6,.cls-7{mix-blend-mode:multiply;}.cls-7{opacity:0.28;}.cls-8{fill:#cf002d;}.cls-9{fill:#f9f9f9;opacity:0.23;}</style></defs><g class="cls-1"><g id="BACKGROUND"><rect class="cls-2" width="500" height="373.06"/></g><g id="OBJECTS"><path class="cls-3" d="M360.69,109c8.2,8.18,19.55,15,32.63,19.78a23.67,23.67,0,0,0,6,1.51c2.4.19,5.23-.15,6.92,1,1.12.78,1.25,2,2.09,2.86,1.58,1.7,5.27,2.06,8.06,1.42s5-2,7.38-3.1a14.75,14.75,0,0,1,8.27-1.54l-8.52,6.76c-.49.39-1,.81-1.06,1.32s.46,1.16,1,1.67l4.29,4.18a7.2,7.2,0,0,0,2.34,1.71c2.46,1,5.88.15,8.32,1.19-.19,1.05-2,1.62-3.6,1.74a21.23,21.23,0,0,0-4.8.49c-1.68.55-2.69,1.85-4.55,2.11-1.05.14-2.17-.09-3.24,0a17,17,0,0,0-3.22.78c-4,1-8.71,0-13.09.2-6,.23-11.07,2.65-15.35,5.28-4.59,2.83-8.88,6.39-8.79,10.6a203.65,203.65,0,0,1-31.2-11.19,13.57,13.57,0,0,0-6.18-1.67,12.11,12.11,0,0,0-3.71.93l-7.88,2.9a4.41,4.41,0,0,1-3,.32c-.78-.29-1-.93-1.38-1.47-1.61-2.54-6.93-3.77-10.43-2.42s-4.27,4.93-1.5,7c1.7,1.28,4.24,1.89,6.68,2.42s5,1.06,6.85,2.24,2.75,3.21,1.2,4.48a15.59,15.59,0,0,0-12.08-.22c-1.45.66-2.6,1.55-4.06,2.19a7.28,7.28,0,0,1-5,.43c-2.78-1-2.37-3.6-1.34-5.48.6-1.1,1.27-2.3.62-3.42-.91-1.56-3.84-2.15-5.57-3.39-2.29-1.63-2.09-4.24-.44-6.08s4.44-3.1,7.14-4.29l10.17-4.53c.66-.83-.57-1.78-1.59-2.48s-1.92-1.91-.81-2.5a4.06,4.06,0,0,1,3,.23c3,1.13,5.68,2.64,8.9,3.42s7.34.56,9.16-1.25c1.52-1.53.92-3.57.53-5.41s-.31-4,2-5.07c1.39-.64,3.32-.68,4.61-1.4,2-1.1,1.59-3.17,1.14-4.91s-.49-3.87,1.8-4.71a21.05,21.05,0,0,0,2.16-.67,2.44,2.44,0,0,0,1.21-1.73c.71-3-.76-6.35-3.92-8.77-.55-.43-1.18-.87-1.29-1.41a1.78,1.78,0,0,1,.57-1.35,10.19,10.19,0,0,1,6.9-4C358.16,105.3,360.69,109,360.69,109Z"/><path class="cls-3" d="M328.08,186.07a29.2,29.2,0,0,1,3,.77c2.39.47,5-.69,5.49-2.26s-1-3.28-3.2-4.07a11.8,11.8,0,0,0-7.13-.07c-1.44-1.36-1-3.37.87-4.36a7.41,7.41,0,0,1,6.78.4c.83.58,1.34,1.32,2.08,1.94,1.2,1,3,1.68,4.08,2.72,1.76,1.67,1.38,3.9.3,5.73-.66,1.12-1.57,2.24-1.39,3.45.26,1.75,2.63,3,4.25,4.47,2.9,2.59,3.46,5.91,3.92,9.05.66,4.46,1.29,9.07-.77,13.27-1.25,2.56-3.45,4.85-4.92,7.34s-2.18,5.4-.41,7.9a16.08,16.08,0,0,0-9.77.36c-2.85,1.12-4.74,3.2-4.91,5.41-.22,2.92,2.36,5.69,3.12,8.6,1.26,4.79-2.43,9.35-6,13.48,0,0-1.51,1.57-2.74,3-4.91,5.59-5.94,13.07,1,18-5,.09-9.47,2.85-9.83,6.12a2,2,0,0,1-.6,1.58,4.94,4.94,0,0,1-2.15.57,22.44,22.44,0,0,0-9.67,3.41c-1.39-2.82,0-6.07,3.47-7.87a19.75,19.75,0,0,0,3.1-1.66c.83-.68,1.18-1.75.3-2.46-1.13-.92-3.34-.63-4.86-.08-4,1.46-6.79,4.22-7.29,7.24-.93-2.17-5.83-2.65-8.54-1.35s-3.74,3.58-4.68,5.71-2.09,4.4-4.9,5.6c0-1.42-.07-2.84-.1-4.25a3.45,3.45,0,0,0-.84-2.61c-1.44-1.41-4.76-1.42-6.86-.53s-3.36,2.38-4.81,3.71a9.5,9.5,0,0,1-5.93,2.76,18.63,18.63,0,0,1-4-.43,67.55,67.55,0,0,0-15.56-.82c0-2.14-4.41-3.74-7.1-2.6,0-1.8-.88-4.21-3.63-4.33a5.23,5.23,0,0,0-3.12,1c-3.86,2.68-2.73,7.73,2.19,9.81a29,29,0,0,0-13.66,5,43.42,43.42,0,0,0-8.84,8.62,2.38,2.38,0,0,1-1.49,1,3.78,3.78,0,0,1-2.36-.68c-3.17-1.84-6.42-3.74-8.43-6.17s-2.56-5.55-.26-7.75c1.08-1.05,2.72-1.82,3.66-2.93a2,2,0,0,0-1-3.4c-2.09-.68-4.29.68-6.58.71-1.91-2.07-5.72-3.16-9.37-3.32a48.4,48.4,0,0,0-10.66,1.09,22,22,0,0,0-6.36,1.87,29.62,29.62,0,0,1-11.89,2.1c-4.25-.07-8.61-.47-12.68.23-4.41.76-9,2.74-13.15,1.32a4.07,4.07,0,0,0-2.32-.41,1.57,1.57,0,0,0-.91.79,7.9,7.9,0,0,0-1.12,4.06,2,2,0,0,1-.22,1.27,3.34,3.34,0,0,1-2.09,1c-6.06,1.07-11.73-3.21-18.07-3.54-2-.11-4.13.21-6.13-.12s-3.93-1.73-3.12-2.94a4.61,4.61,0,0,1,.49-1.88,5.15,5.15,0,0,1,4.25-1.9c1.92,0,4,.21,5.62-.42s2.39-2.07,4.14-2.62a18,18,0,0,1,4.27-.34c4.63-.25,7.89-2.81,11.05-5A65,65,0,0,1,137.19,277a28.27,28.27,0,0,1,5.22-1.11,41.58,41.58,0,0,1,5.69,0,259.84,259.84,0,0,0,37.68-.93,11.8,11.8,0,0,1,4.4.12,13.61,13.61,0,0,1,2.28,1.06c5.45,2.72,14.45,1,16.36-3.19.48-1,.57-2.16,1.14-3.18,1.18-2.12,4.19-3.49,6.94-4.83,4.59-2.24,9.11-5,10.23-8.69.72-2.4-.07-5,1.05-7.31,1.63-3.37,7.61-5.46,13-4.53,0,0-2,3.78-4,4.21-1.12.23-2.37.18-3.47.45s-2,1.08-1.51,1.79c.37.5,1.31.72,1.8,1.18.68.64.31,1.48.45,2.24.29,1.54,2.81,2.61,5.17,2.69a20.54,20.54,0,0,0,6.68-1.21c5.17-1.56,10.34-3.13,15.42-4.8,5.84-1.91,11.73-4,15.69-7.42,2.56-2.18,4.38-4.9,8.08-6.23,1.92-.69,4.27-1,5.77-2a6.87,6.87,0,0,0,2.21-3.31c2.14-4.85,6.71-9,9.91-13.59s4.92-10.12,1.28-14.73c1.81-1-.51-3.09.12-4.62.43-1,2.18-1.67,2.51-2.73.53-1.67-2.72-3.18-2.3-4.87.28-1.14,2.13-1.78,3.87-2a10.19,10.19,0,0,0,2.73-.46c1.62-.68,1.61-2.23,1.11-3.47s-1.35-2.54-.81-3.75c.64-1.43,3.28-2.21,5.5-1.75s3.77,2,3.76,3.5c0,.82-.42,1.64-.19,2.46s1.42,1.18,2.68,1.31C324.68,187.51,327,186,328.08,186.07Z"/><path class="cls-3" d="M158,313.87l5.64,3.13c.43-3.27,4.51-5.71,8.65-7.49,2.39-1,5.24-2.45,4.54-4.31a5.56,5.56,0,0,0-2.48-2.21c-2.77-1.66-5.71-3.39-9.31-4-3.86-.69-8.16,0-10.87,1.85-1.66,1.12-2.78,2.61-4.83,3.42a18.3,18.3,0,0,1-6,.83,8.55,8.55,0,0,1-3.92-.49c-1-.47-1.43-1.29-2.42-1.73-2.13-.95-4.86.47-5.71,2s-1,3.36-2.73,4.49a28.69,28.69,0,0,1-3.51,1.49c-1.15.52-2.12,1.42-1.7,2.31s2.43,1.47,3.2,2.42c1.45,1.8-2.1,4-.45,5.77a5.56,5.56,0,0,0,1.64,1l5.68,2.56a5.74,5.74,0,0,0,1.53.51,2.73,2.73,0,0,0,3.12-2.84c-.07-1.36-.45-3,1.14-3.82,1.05-.54,2.58-.51,3.77-.92,1.81-.64,2.38-2.12,3.47-3.26s3.18-1.41,5.14-.88a8.64,8.64,0,0,0,4.66.2C157.85,313.5,158,313.87,158,313.87Z"/><path class="cls-3" d="M100.79,308.89a12.61,12.61,0,0,1,4.14-1c1.51,0,3.16.69,3.28,1.67.15,1.22-1.88,1.92-3.42,2.57s-2.77,2.23-1.22,2.95a7.84,7.84,0,0,0,2.43.35c2.82.28,4.57,2.16,5.9,3.83.91,1.15,1.86,2.41,1.53,3.66-.28,1-1.37,1.85-2.41,2.63-7.34,5.43-14.74,11.86-13.64,19.24.19,1.29.36,3-1.43,3.45-1.57.44-3.74-.39-5,.34.9,1.53.32,3.35-1.42,4.45a9.23,9.23,0,0,1-6.86.82c.64-1.59,3.07-2.55,4.22-4,1.59-2,.1-4.88-3.1-5.95C81,343.56,79.17,346,80,347.82a1.71,1.71,0,0,1,.3,1.06c-.16.61-1.18.94-2.12,1-2.72.2-5.73-1.45-5.32-3.21.36-1.55,2.91-2.56,3.18-4.12s-2-3-2.71-4.65.25-3.12,1.62-4.36,3.19-2.23,4.74-3.37c3.12-2.29,5.16-5.39,4.39-8.49s-4.94-6-9.72-6.05a4.21,4.21,0,0,0-1.35.16c-1.29.45-1.1,1.67-1,2.64a3.75,3.75,0,0,1-1.72,4c-1.6,1-4.72.91-5.8-.4-1.31-1.57.82-3.82-1.13-5.09a17.69,17.69,0,0,0-2.63-1c-1.37-.58-2.09-1.77-1.65-2.76s2-1.72,3.58-1.67a5,5,0,0,0,2.49-.17c.59-.38.35-1,.5-1.56.39-1.38,3.19-1.72,5.34-1.46s4.52.79,6.36.08c2.55-1,2.18-3.5,3.85-5.09s5.85-1.86,8.15-.43c2.61,1.63,2.68,4.89,6,5.68C97.26,309.07,99.25,309.43,100.79,308.89Z"/><path class="cls-3" d="M59,313.75l.74-16s14.74-.48,15.47-.45,11.89,3.11,11.84,3.25.65,4.11-.27,5.6-9.43,6.12-10.45,6.07-7.94,1.52-8.74,1.56S59,313.75,59,313.75Z"/><polygon class="cls-3" points="72.87 347.33 73.64 330.97 77.38 330.85 85.37 337.06 99.56 330.14 100.81 309.78 114.18 306.9 113.43 322.95 100.02 331.19 88.26 341.13 78.61 340.31 72.87 347.33"/><path class="cls-3" d="M89.79,282l-.08,13.65,13.23,4.61s9.12-5,9.51-5.31,8.12-5,9.41-5.81,11-5.71,11.16-8.16.2-4.08.2-4.08-9.16-.05-9.77-.45S89.79,282,89.79,282Z"/><path class="cls-3" d="M124.15,297.07l-.7,15.07,10.11,2.14,2.6-9.91.39,7.69s22.93-6.13,23.46-6.57,12.23-2,12.23-2l4.71,2.81.68-16-25.81.4Z"/><path class="cls-3" d="M164.12,271.06c0,1-.71,9.85.54,9.91s19.27,5.28,19.27,5.28l6.54,1.05-.75,16.05,7.64.86,8.51-21.44s-1-9.81-2.17-9.86-32.43-2.15-32.43-2.15Z"/><path class="cls-3" d="M227,283.66l-.75,16s-12.89-.57-12.85-1.44,1.56-14.66,2-15.16S227,283.66,227,283.66Z"/><path class="cls-3" d="M322.41,265.15l-.75,16.05-7.58-.36s-5-15.26-4.64-15.74.25-.11,1.52-.49S322.41,265.15,322.41,265.15Z"/><path class="cls-3" d="M329.68,248.66l.66-14.24s-11-.89-11.56-.54-6.93,9.06-6.6,10,7.55,9.87,7.55,9.87Z"/><path class="cls-3" d="M341,232.35l.76-16L337,213.71s-7.22,4.13-7.33,4.21S341,232.35,341,232.35Z"/><path class="cls-3" d="M304.94,192.14l-.21,7L315,200.54s3.45-22.86,2.47-23.28-11.74-1.79-11.74-1.79Z"/><path class="cls-3" d="M302.86,143.54l-.52,17.28,8.06,1,1.17-11.58L308.79,164l-.82,8.22,5.22.24,29.15,5.05-.37-9.71-9.14-7.85s-.45-7.86-.07-8,17.69-7.33,18.14-8.79-1.94-5.85-4.66-6.6-20.66.41-21.29.5S302.86,143.54,302.86,143.54Z"/><path class="cls-3" d="M318.52,127.48l-.36,7.64s9.42-1.19,9.2-1.7-4.34-4.58-4.34-4.58Z"/><path class="cls-3" d="M348.3,95l-.75,16s13.06,1.91,13.47,1.3-.18-14.9-.18-14.9Z"/><path class="cls-3" d="M432.83,114.88,432,132.2l7.18-.5-.76,16.06s-22.27,0-22.37-.54-4.32-9.22-3.63-10.69,6.14-10.85,6.83-12.19a32.3,32.3,0,0,1,4.63-5.29C424.29,118.82,432.83,114.88,432.83,114.88Z"/><path class="cls-4" d="M361.44,92.93c8.21,8.18,19.55,15,32.64,19.78a23.49,23.49,0,0,0,6,1.51c2.41.19,5.23-.15,6.92,1,1.12.78,1.25,2,2.1,2.86,1.57,1.7,5.27,2.06,8.05,1.42s5-2,7.38-3.1a14.66,14.66,0,0,1,8.27-1.54l-8.51,6.76c-.49.39-1,.81-1.07,1.32s.47,1.16,1,1.67l4.29,4.18a7.31,7.31,0,0,0,2.34,1.71c2.47,1,5.89.15,8.33,1.18-.19,1.06-2,1.63-3.6,1.75a21.11,21.11,0,0,0-4.8.49c-1.69.55-2.7,1.85-4.56,2.11-1.05.14-2.17-.09-3.24,0a17.2,17.2,0,0,0-3.22.78c-4,1.05-8.7,0-13.09.2-6,.23-11.07,2.65-15.35,5.28-4.59,2.82-8.88,6.39-8.79,10.6a203.65,203.65,0,0,1-31.2-11.19,13.54,13.54,0,0,0-6.18-1.67,12.18,12.18,0,0,0-3.71.93l-7.87,2.9a4.45,4.45,0,0,1-3,.32c-.78-.29-1-.93-1.38-1.47-1.61-2.54-6.93-3.77-10.43-2.42s-4.27,4.93-1.49,7c1.69,1.28,4.23,1.89,6.67,2.42s5,1.06,6.86,2.23,2.74,3.22,1.19,4.49a15.59,15.59,0,0,0-12.08-.22c-1.44.66-2.6,1.55-4.06,2.19a7.28,7.28,0,0,1-5,.43c-2.78-1-2.37-3.6-1.34-5.48.6-1.1,1.27-2.3.62-3.43-.91-1.55-3.84-2.14-5.57-3.38-2.29-1.64-2.09-4.24-.43-6.08s4.43-3.1,7.13-4.3l10.17-4.52c.66-.83-.57-1.78-1.59-2.48s-1.92-1.91-.81-2.5a4.06,4.06,0,0,1,3,.23c3,1.13,5.68,2.64,8.91,3.42s7.33.56,9.15-1.26c1.52-1.52.92-3.56.53-5.4s-.3-4,2-5.07c1.39-.64,3.32-.68,4.61-1.4,2-1.11,1.6-3.18,1.15-4.91s-.5-3.87,1.79-4.71a21.05,21.05,0,0,0,2.16-.67,2.42,2.42,0,0,0,1.21-1.73c.71-3.05-.76-6.36-3.91-8.77-.56-.43-1.19-.87-1.3-1.41a1.82,1.82,0,0,1,.57-1.35,10.22,10.22,0,0,1,6.9-4C358.92,89.25,361.44,92.93,361.44,92.93Z"/><path class="cls-4" d="M328.84,170c1,.11,1.94.56,3,.76,2.39.48,5-.68,5.49-2.25s-1-3.28-3.2-4.07a11.8,11.8,0,0,0-7.13-.07c-1.43-1.36-1-3.37.88-4.36a7.39,7.39,0,0,1,6.77.4c.83.58,1.34,1.32,2.09,1.94,1.19,1,3,1.68,4.07,2.72,1.76,1.67,1.38,3.9.3,5.73-.66,1.12-1.57,2.24-1.39,3.45.27,1.75,2.64,3,4.25,4.47,2.9,2.59,3.46,5.91,3.92,9,.66,4.46,1.29,9.07-.77,13.27-1.25,2.56-3.45,4.85-4.92,7.34s-2.18,5.4-.4,7.9a16.07,16.07,0,0,0-9.77.36c-2.86,1.12-4.75,3.2-4.91,5.41-.22,2.92,2.35,5.69,3.11,8.6,1.26,4.79-2.43,9.35-6,13.48,0,0-1.51,1.57-2.74,3-4.91,5.6-5.94,13.08,1,18-5,.09-9.47,2.85-9.83,6.12a2,2,0,0,1-.6,1.58,4.94,4.94,0,0,1-2.15.57,22.44,22.44,0,0,0-9.67,3.41c-1.39-2.82,0-6.07,3.47-7.87a19.75,19.75,0,0,0,3.1-1.66c.83-.68,1.18-1.75.3-2.46-1.13-.92-3.34-.63-4.85-.08-4,1.46-6.8,4.22-7.3,7.24-.93-2.17-5.83-2.65-8.54-1.35s-3.74,3.58-4.68,5.71-2.08,4.4-4.9,5.6c0-1.42-.06-2.84-.1-4.25a3.41,3.41,0,0,0-.84-2.61c-1.44-1.41-4.76-1.42-6.86-.53s-3.36,2.38-4.81,3.71a9.55,9.55,0,0,1-5.93,2.76,18.63,18.63,0,0,1-4-.43,66.37,66.37,0,0,0-15.55-.82c0-2.14-4.41-3.74-7.11-2.61,0-1.79-.87-4.2-3.63-4.32a5.23,5.23,0,0,0-3.12,1c-3.85,2.68-2.73,7.73,2.19,9.81a29,29,0,0,0-13.66,5,43.16,43.16,0,0,0-8.84,8.62,2.38,2.38,0,0,1-1.49,1,3.73,3.73,0,0,1-2.35-.68c-3.18-1.84-6.42-3.74-8.44-6.17s-2.56-5.55-.26-7.76c1.09-1,2.72-1.81,3.66-2.92a2,2,0,0,0-1-3.4c-2.09-.68-4.29.68-6.58.71-1.91-2.07-5.72-3.16-9.36-3.32A48.49,48.49,0,0,0,168,275.84a21.87,21.87,0,0,0-6.35,1.87,29.66,29.66,0,0,1-11.9,2.1c-4.25-.07-8.61-.47-12.68.23-4.4.75-9,2.74-13.15,1.31a4,4,0,0,0-2.31-.4,1.48,1.48,0,0,0-.91.79,7.71,7.71,0,0,0-1.12,4.06,2.09,2.09,0,0,1-.23,1.27,3.34,3.34,0,0,1-2.09,1c-6.06,1.07-11.73-3.21-18.07-3.54-2-.11-4.12.21-6.13-.12s-3.93-1.73-3.11-2.94a4.44,4.44,0,0,1,.49-1.88,5.14,5.14,0,0,1,4.25-1.9c1.91,0,4,.2,5.62-.42s2.39-2.07,4.14-2.62a17.87,17.87,0,0,1,4.26-.34c4.63-.25,7.89-2.81,11.05-5A65,65,0,0,1,137.94,261a27.58,27.58,0,0,1,5.23-1.11,40.06,40.06,0,0,1,5.69,0,259.73,259.73,0,0,0,37.67-.93,11.86,11.86,0,0,1,4.41.12,13.88,13.88,0,0,1,2.27,1.06c5.46,2.72,14.45,1,16.36-3.19.48-1,.57-2.16,1.14-3.18,1.18-2.12,4.19-3.49,6.95-4.84,4.58-2.23,9.1-5,10.22-8.68.73-2.4-.06-5,1.06-7.31,1.62-3.37,7.6-5.46,12.95-4.53,0,0-2,3.78-4,4.21-1.12.23-2.37.18-3.47.45s-2,1.08-1.51,1.79c.38.5,1.31.72,1.8,1.18.69.64.31,1.48.45,2.24.29,1.54,2.81,2.61,5.17,2.69a20.54,20.54,0,0,0,6.68-1.21c5.17-1.56,10.34-3.13,15.43-4.8,5.83-1.91,11.72-4.05,15.68-7.42,2.56-2.18,4.38-4.9,8.08-6.23,1.92-.69,4.27-1,5.77-2a6.73,6.73,0,0,0,2.21-3.3c2.15-4.85,6.71-9,9.91-13.59s4.93-10.12,1.28-14.73c1.81-1-.51-3.09.12-4.62.43-1,2.18-1.67,2.52-2.73.52-1.67-2.73-3.18-2.31-4.87.28-1.14,2.13-1.78,3.87-2a10.19,10.19,0,0,0,2.73-.46c1.62-.68,1.62-2.23,1.11-3.47s-1.35-2.55-.81-3.75c.64-1.43,3.29-2.21,5.5-1.75s3.77,2,3.76,3.5c0,.82-.42,1.64-.19,2.46s1.42,1.18,2.68,1.31C325.44,171.46,327.8,169.9,328.84,170Z"/><path class="cls-4" d="M158.78,297.82l5.65,3.13c.42-3.27,4.5-5.71,8.64-7.49,2.39-1,5.24-2.45,4.54-4.32a5.62,5.62,0,0,0-2.47-2.2c-2.78-1.66-5.71-3.39-9.31-4A15.69,15.69,0,0,0,155,284.75c-1.66,1.12-2.78,2.61-4.83,3.42a18.26,18.26,0,0,1-6,.83,8.56,8.56,0,0,1-3.92-.49c-.95-.47-1.42-1.29-2.42-1.73-2.13-.95-4.85.47-5.71,2s-1,3.36-2.73,4.49a29.61,29.61,0,0,1-3.51,1.49c-1.15.52-2.11,1.41-1.7,2.31s2.43,1.47,3.2,2.42c1.45,1.8-2.09,4-.44,5.77a5.38,5.38,0,0,0,1.63,1l5.68,2.56a5.74,5.74,0,0,0,1.53.51,2.73,2.73,0,0,0,3.12-2.84c-.07-1.36-.45-3,1.14-3.82,1.05-.54,2.58-.51,3.77-.93,1.81-.63,2.39-2.11,3.47-3.25s3.18-1.41,5.14-.88a8.64,8.64,0,0,0,4.66.2C158.6,297.45,158.78,297.82,158.78,297.82Z"/><path class="cls-4" d="M101.55,292.84a12.49,12.49,0,0,1,4.14-1c1.5,0,3.16.69,3.27,1.67.15,1.22-1.88,1.92-3.42,2.57s-2.77,2.23-1.21,2.95a7.82,7.82,0,0,0,2.42.35c2.82.28,4.57,2.16,5.9,3.82.92,1.16,1.86,2.42,1.53,3.67-.27,1-1.37,1.85-2.41,2.63C104.43,315,97,321.39,98.14,328.77c.19,1.29.35,3-1.44,3.45-1.56.44-3.74-.39-5,.34.89,1.53.31,3.35-1.43,4.45a9.23,9.23,0,0,1-6.86.82c.65-1.59,3.07-2.55,4.22-4,1.59-2,.1-4.87-3.09-5.94-2.83-.37-4.62,2.08-3.78,3.88a1.67,1.67,0,0,1,.3,1.07c-.16.61-1.17.94-2.12,1-2.72.2-5.72-1.45-5.32-3.21.36-1.56,2.92-2.56,3.19-4.12s-2-3-2.72-4.65.25-3.12,1.62-4.36,3.19-2.23,4.75-3.37c3.11-2.29,5.15-5.39,4.38-8.5s-4.93-6-9.72-6a4.28,4.28,0,0,0-1.35.16c-1.29.45-1.1,1.67-.94,2.64a3.77,3.77,0,0,1-1.73,4c-1.6,1-4.71.91-5.8-.4-1.31-1.57.82-3.82-1.13-5.09a16.9,16.9,0,0,0-2.63-1c-1.37-.58-2.08-1.77-1.65-2.76s2-1.72,3.58-1.68a4.93,4.93,0,0,0,2.49-.16c.59-.38.36-1,.51-1.56.38-1.38,3.18-1.72,5.33-1.46s4.52.79,6.36.08c2.55-1,2.18-3.5,3.85-5.09s5.86-1.86,8.15-.43c2.62,1.63,2.68,4.89,6.06,5.68C98,293,100,293.38,101.55,292.84Z"/><path class="cls-5" d="M131.27,270.87l-4.59,1.06L76.62,55.32a2.36,2.36,0,0,1,1.76-2.83h0a2.37,2.37,0,0,1,2.83,1.77Z"/><path class="cls-6" d="M81.21,54.26l50.06,216.61-4.59,1.06s1.48-5.12.07-13S104,160.52,104,160.52L79.67,59.27Z"/><path class="cls-5" d="M81.34,49.36c.35,1.52-.93,3.12-2.86,3.57s-3.78-.43-4.13-2,.92-3.12,2.85-3.57S81,47.83,81.34,49.36Z"/><path class="cls-4" d="M78.33,62.72a3.27,3.27,0,0,1,1.34-3.45A95.62,95.62,0,0,1,132.45,42c33.94-1,53.61,12.52,86.07,1.29,21.11-7.3,34.14-14.68,39.6-19.62a3.29,3.29,0,0,1,5.41,1.7l24.23,104.83a3.3,3.3,0,0,1-1.95,3.79c-7.49,3.09-29.74,11.78-45.51,12.77-43.2,2.73-38-6.64-83.71-.33-30.33,4.19-44.06,12.43-49.89,17.56a3.3,3.3,0,0,1-5.37-1.75Z"/><path class="cls-7" d="M263.53,25.4l24.23,104.83a3.3,3.3,0,0,1-1.95,3.79c-7.49,3.09-29.74,11.78-45.51,12.77-43.2,2.73-38-6.64-83.71-.33,0,0,23.69-7.76,69.44-4.68,32.11,2.15,38.65-10.65,41.89-24.63C270,108.29,263.53,25.4,263.53,25.4Z"/><ellipse class="cls-8" cx="183.85" cy="95.38" rx="39.12" ry="36.88" transform="translate(-11.22 25.78) rotate(-7.78)"/><path class="cls-4" d="M121.54,273.48a14.66,14.66,0,0,1,7.5-4.7c3.88-.84,7.69-.1,8.08.38s-.25,5.28-.25,5.37-13.23,1.09-13.23,1.09Z"/><path class="cls-3" d="M121.5,274.14a10.17,10.17,0,0,1,1.94-2.6,12.62,12.62,0,0,1,2.68-2,10.6,10.6,0,0,1,1.74-.79,12.6,12.6,0,0,1,1.92-.5,15.72,15.72,0,0,1,1.95-.22,13.42,13.42,0,0,1,1.91.05c1.23.1,2.33.38,3.27.53a6.57,6.57,0,0,0,2.26,0,4.21,4.21,0,0,0,.63-.15l.23-.06-.21.11a3.93,3.93,0,0,1-.61.26,6.09,6.09,0,0,1-2.35.3c-1,0-2.1-.22-3.27-.27a16.51,16.51,0,0,0-3.67.27,10.88,10.88,0,0,0-1.79.44,11.68,11.68,0,0,0-1.67.68,14.1,14.1,0,0,0-2.7,1.72,16.14,16.14,0,0,0-1.68,1.58C121.7,273.88,121.5,274.14,121.5,274.14Z"/><path class="cls-9" d="M39.37,228.5a6,6,0,0,1-4.9-2.55c-3.19-4.66-5.37-12.89.93-18.41,4.14-3.63,11.69,5.2,11.69,5.2S38.78,190,51.48,186.37s26.21,3.17,26,21.17c0,0,8.2-6.36,17,0s5.22,12.93,5.22,12.93,6.42-3.84,11.64-2.39,4.81,7.07,4.81,7.07h24.59a1.9,1.9,0,0,1,1.9,1.9h0a1.9,1.9,0,0,1-1.9,1.9Z"/><path class="cls-9" d="M254.06,72.34a2.09,2.09,0,0,1-1.75-1c-3.8-5.74-5.67-19.2.88-20.41a12.35,12.35,0,0,1,11.2,3.73S259,36.17,269,36.17s8,10,8,10,7.43-8.89,15.54-3.09,5.86,21.1,5.86,21.1,1.48-8.36,8-7.2S313.44,66,313.44,66s5.64-5.73,9.2-3.66,3.55,7.75,3.55,7.75l43.29,0a1.14,1.14,0,0,1,1.13,1.13h0a1.14,1.14,0,0,1-1.13,1.13Z"/><path class="cls-9" d="M343.3,327.94a2.15,2.15,0,0,1-1.8-1c-3.91-5.91-5.84-19.77.91-21a12.7,12.7,0,0,1,11.53,3.84s-5.57-19.08,4.77-19.08S367,301.05,367,301.05s7.65-9.15,16-3.19,6,21.73,6,21.73,1.52-8.6,8.28-7.41,7.16,9.19,7.16,9.19,5.8-5.9,9.46-3.77,3.65,8,3.65,8l44.57,0a1.16,1.16,0,0,1,1.16,1.17h0a1.16,1.16,0,0,1-1.16,1.16Z"/></g></g></svg>