<svg id="AdobeIllustrator" xmlns="http://www.w3.org/2000/svg" xmlns:xlink="http://www.w3.org/1999/xlink" width="42.3" height="42.3" viewBox="0 0 42.3 42.3">
  <defs>
    <radialGradient id="radial-gradient" cx="0.399" cy="0.333" r="0.652" gradientUnits="objectBoundingBox">
      <stop offset="0" stop-color="#1c0a00" stop-opacity="0.851"/>
      <stop offset="0.767" stop-color="#1c0a00"/>
    </radialGradient>
  </defs>
  <g id="Adobe_Illustrator">
    <path id="path0_fill" d="M0,21.15A21.15,21.15,0,1,1,21.15,42.3,21.15,21.15,0,0,1,0,21.15Z" fill="#f37021"/>
    <path id="path0_fill-2" data-name="path0_fill" d="M0,19.035A19.035,19.035,0,1,1,19.035,38.07,19.035,19.035,0,0,1,0,19.035Z" transform="translate(2.115 2.115)" fill="url(#radial-gradient)"/>
    <path id="Shape" d="M19.243,18.759H16.667c-.151,0-.219-.068-.219-.219V5.469c0-.138.054-.192.192-.192h2.6c.138,0,.192.054.192.192v13.1C19.435,18.7,19.409,18.759,19.243,18.759Zm-5.408,0H11.1c-.15,0-.221-.041-.247-.141l-1.369-5H4.171L2.857,18.591c-.027.134-.078.168-.247.168H.173c-.077,0-.121-.012-.146-.041s-.034-.091-.018-.2l4.709-16.5A5.21,5.21,0,0,0,4.882.631c0-.1.05-.165.137-.165H8.5c.106,0,.165.026.192.165l5.284,17.91a.212.212,0,0,1-.017.176A.145.145,0,0,1,13.835,18.759ZM6.8,3.121C6.451,5.025,5.6,8.2,4.925,10.758l-.043.161H8.8c-.134-.53-.317-1.227-.529-2.035C7.756,6.932,7.118,4.5,6.826,3.121Zm11.135.274a1.562,1.562,0,0,1-1.67-1.7A1.607,1.607,0,0,1,17.96,0a1.607,1.607,0,0,1,1.7,1.7A1.587,1.587,0,0,1,17.933,3.395Z" transform="translate(9.952 11.592)" fill="#ff7f18"/>
  </g>
</svg>
