<svg xmlns="http://www.w3.org/2000/svg" width="28.135" height="28.135" viewBox="0 0 28.135 28.135">
  <path id="Icon_material-link" data-name="Icon material-link" d="M5.52,17.132A4.115,4.115,0,0,1,9.632,13.02h5.305V10.5H9.632a6.632,6.632,0,1,0,0,13.263h5.305v-2.52H9.632A4.115,4.115,0,0,1,5.52,17.132Zm5.438,1.326H21.568V15.805H10.958ZM22.895,10.5H17.59v2.52h5.305a4.112,4.112,0,1,1,0,8.223H17.59v2.52h5.305a6.632,6.632,0,1,0,0-13.263Z" transform="translate(-9.546 13.454) rotate(-45)" fill="#252d3a"/>
</svg>
