<svg id="AdobePhotoshop" xmlns="http://www.w3.org/2000/svg" xmlns:xlink="http://www.w3.org/1999/xlink" width="42.3" height="42.3" viewBox="0 0 42.3 42.3">
  <defs>
    <radialGradient id="radial-gradient" cx="0.399" cy="0.333" r="0.652" gradientUnits="objectBoundingBox">
      <stop offset="0" stop-color="#0e0e17" stop-opacity="0.851"/>
      <stop offset="0.767" stop-color="#0e0e17"/>
    </radialGradient>
  </defs>
  <g id="Adobe_Photoshop">
    <path id="path0_fill" d="M0,21.15A21.15,21.15,0,1,1,21.15,42.3,21.15,21.15,0,0,1,0,21.15Z" fill="#31c5f0"/>
    <path id="path0_fill-2" data-name="path0_fill" d="M0,19.035A19.035,19.035,0,1,1,19.035,38.07,19.035,19.035,0,0,1,0,19.035Z" transform="translate(2.115 2.115)" fill="url(#radial-gradient)"/>
    <path id="Shape" d="M16.341,18.739a7.334,7.334,0,0,1-3.43-.719c-.115-.058-.138-.146-.138-.277V15.284c0-.111.038-.177.1-.177a.162.162,0,0,1,.093.038,6.2,6.2,0,0,0,3.375,1c1.636,0,1.88-.814,1.88-1.3,0-.589-.339-1.108-2.073-2.018-2.426-1.157-3.372-2.343-3.372-4.229a3.718,3.718,0,0,1,1.209-2.784,4.945,4.945,0,0,1,3.406-1.168,7.528,7.528,0,0,1,3.005.47.358.358,0,0,1,.166.332V7.739c0,.115-.058.183-.154.183a.3.3,0,0,1-.1-.017,5.991,5.991,0,0,0-2.922-.719c-.816,0-1.769.319-1.769,1.217,0,.6.3,1.02,2.073,1.934a7.444,7.444,0,0,1,2.712,1.945,3.61,3.61,0,0,1,.743,2.339,3.792,3.792,0,0,1-1.368,3.065A5.4,5.4,0,0,1,16.341,18.739ZM2.78,18.486H.194c-.137,0-.194-.056-.194-.194V.276C0,.163.243.083.375.083,1.418.03,2.951,0,4.694,0A6.731,6.731,0,0,1,9.661,1.679,5.632,5.632,0,0,1,11.146,5.8a5.592,5.592,0,0,1-2.017,4.637,7.729,7.729,0,0,1-4.856,1.444c-.347,0-.574-.008-.774-.016-.167-.006-.325-.012-.525-.012v6.435C2.973,18.43,2.917,18.486,2.78,18.486Zm1.8-15.833c-.684,0-1.31.029-1.6.056V9.176c.387.028.69.028,1.354.028,2.525,0,3.805-1.125,3.805-3.344C8.133,3.792,6.87,2.653,4.576,2.653Z" transform="translate(10.575 11.985)" fill="#31c5f0"/>
  </g>
</svg>
