<svg id="AdobeXD" xmlns="http://www.w3.org/2000/svg" xmlns:xlink="http://www.w3.org/1999/xlink" width="42.3" height="42.3" viewBox="0 0 42.3 42.3">
  <defs>
    <radialGradient id="radial-gradient" cx="0.399" cy="0.333" r="0.652" gradientUnits="objectBoundingBox">
      <stop offset="0" stop-color="#0e0e17" stop-opacity="0.851"/>
      <stop offset="0.767" stop-color="#0e0e17"/>
    </radialGradient>
  </defs>
  <g id="Adobe_XD">
    <path id="path0_fill" d="M0,21.15A21.15,21.15,0,1,1,21.15,42.3,21.15,21.15,0,0,1,0,21.15Z" fill="#ff2bc2"/>
    <path id="path0_fill-2" data-name="path0_fill" d="M0,19.035A19.035,19.035,0,1,1,19.035,38.07,19.035,19.035,0,0,1,0,19.035Z" transform="translate(2.115 2.115)" fill="url(#radial-gradient)"/>
    <path id="Shape" d="M17.4,15.609a5.193,5.193,0,0,1-3.829-1.446,6.021,6.021,0,0,1-1.5-4.367,6.2,6.2,0,0,1,1.514-4.223,5.456,5.456,0,0,1,4.156-1.72,6.332,6.332,0,0,1,.745.029V.158A.144.144,0,0,1,18.63.014h2.306c.118,0,.143.046.143.114V13.217a10.106,10.106,0,0,0,.072,1.4c0,.1,0,.114-.086.157A8.58,8.58,0,0,1,17.4,15.609Zm.258-9.623a2.731,2.731,0,0,0-2.18.983,4.2,4.2,0,0,0-.827,2.711,4.284,4.284,0,0,0,.816,2.836,2.559,2.559,0,0,0,2.019.859,2.665,2.665,0,0,0,.988-.158V6.129h.014A1.938,1.938,0,0,0,17.656,5.986ZM11.112,15.48H8.62a.28.28,0,0,1-.3-.186c-.946-1.95-1.908-3.981-2.807-5.886H5.484c-.874,1.953-1.809,4.02-2.72,5.9a.274.274,0,0,1-.258.158H.128a.121.121,0,0,1-.119-.058.139.139,0,0,1,.033-.143L3.966,7.719.171.215A.134.134,0,0,1,.148.071.137.137,0,0,1,.271,0H2.734c.136,0,.214.024.258.158Q3.344.9,3.7,1.638c.658,1.377,1.337,2.8,1.973,4.219H5.7c.6-1.373,1.26-2.771,1.9-4.123C7.833,1.225,8.08.7,8.319.186,8.391.07,8.435,0,8.577,0h2.306a.118.118,0,0,1,.108.049.172.172,0,0,1-.022.166l-3.78,7.26L11.2,15.251a.172.172,0,0,1,.02.173A.114.114,0,0,1,11.112,15.48Z" transform="translate(10.575 13.395)" fill="#fed7f0"/>
  </g>
</svg>
