<svg id="Layer_1" data-name="Layer 1" xmlns="http://www.w3.org/2000/svg" width="1350.67" height="140.16" viewBox="0 0 1350.67 140.16"><defs><style>.cls-1{fill:#fff;}</style></defs><path class="cls-1" d="M18.81,42.88V125.6H0V23q0-5.43,2.72-8.63a9.22,9.22,0,0,1,7.39-3.18,9.88,9.88,0,0,1,4.19.93,15,15,0,0,1,4.2,3.11L98.26,94.34V11.63h18.81V115.18q0,5.59-2.72,8.71a9,9,0,0,1-7.07,3.1q-4.83,0-9-4.19Z"/><path class="cls-1" d="M254,126.37,237.1,97.92H183.61l9.33-16h34.67L202.43,39.62l-51.31,86.75H128.58l65-108.21a14.88,14.88,0,0,1,4.05-4.66,9.19,9.19,0,0,1,5.59-1.71,8.86,8.86,0,0,1,5.52,1.71,15.64,15.64,0,0,1,4,4.66l65.14,108.21Z"/><path class="cls-1" d="M324,94.19V75.07h45.4q10.43,0,16.25-5.91t5.83-15.55q0-9.8-5.83-15.55T369.4,32.31H309.55V125.6H290v-113H369.4a50,50,0,0,1,17.5,2.87,36.31,36.31,0,0,1,13,8.09A34.44,34.44,0,0,1,408,36.2,47.42,47.42,0,0,1,410.76,53,47.55,47.55,0,0,1,408,69.7,35.65,35.65,0,0,1,386.9,91.16a47.53,47.53,0,0,1-17.5,3Z"/><path class="cls-1" d="M526.28,126.37,509.33,97.92H455.85l9.32-16h34.68L474.66,39.62l-51.31,86.75H400.81l65-108.21a14.86,14.86,0,0,1,4-4.66,9.2,9.2,0,0,1,5.6-1.71A8.9,8.9,0,0,1,481,13.5a15.47,15.47,0,0,1,4,4.66l65.14,108.21Z"/><path class="cls-1" d="M624.61,125.79a53.46,53.46,0,0,1-21.84-4.43A53.78,53.78,0,0,1,573.85,91a62.26,62.26,0,0,1-4.12-22.85,60.35,60.35,0,0,1,4.12-22.7,50.36,50.36,0,0,1,11.5-17.49,52,52,0,0,1,17.42-11.2,58.9,58.9,0,0,1,21.84-4h61.26V32.5H624.61a35.9,35.9,0,0,0-14.07,2.72,33.28,33.28,0,0,0-11.11,7.54,34.67,34.67,0,0,0-7.31,11.51A39.69,39.69,0,0,0,589.47,69a40.45,40.45,0,0,0,2.65,14.77,35.21,35.21,0,0,0,7.31,11.74,33.52,33.52,0,0,0,11.11,7.69,34.9,34.9,0,0,0,14.07,2.8H673V76.66H622V60h70.9v65.77Z"/><path class="cls-1" d="M711.05,125.79v-113H730.8V106h76v19.75Z"/><path class="cls-1" d="M971.31,125.79v-113H1054a56.52,56.52,0,0,1,15,1.86,34,34,0,0,1,11.58,5.52,24.81,24.81,0,0,1,7.46,9.18A28.88,28.88,0,0,1,1090.72,42a32.27,32.27,0,0,1-1.25,9.48,22.17,22.17,0,0,1-3.42,6.92,21,21,0,0,1-5,4.82,22,22,0,0,1-6,2.88,25.37,25.37,0,0,1,12.75,9q5,6.54,5,16.48a36.93,36.93,0,0,1-2.57,14.07,30.71,30.71,0,0,1-7.3,10.81,32.14,32.14,0,0,1-11.51,6.92,44.36,44.36,0,0,1-15,2.41Zm34.05-49.13V60h48.82q8.4,0,12.44-3.11t4-10.57a13.48,13.48,0,0,0-1.71-7.23,11.19,11.19,0,0,0-4.9-4.2,24.14,24.14,0,0,0-7.61-1.94,95.33,95.33,0,0,0-9.88-.47h-55.5v73.7h57.21a57.6,57.6,0,0,0,9.8-.78,25.08,25.08,0,0,0,7.77-2.56,13.57,13.57,0,0,0,5.05-4.59,12.79,12.79,0,0,0,1.79-7q0-7-4.35-10.8t-12.75-3.81Z"/><path class="cls-1" d="M1219,126.57,1202,98.11h-53.49l9.33-16h34.67l-25.18-42.29-51.31,86.76h-22.54l65-108.21a14.93,14.93,0,0,1,4-4.67,9.19,9.19,0,0,1,5.59-1.71,8.86,8.86,0,0,1,5.52,1.71,15.54,15.54,0,0,1,4,4.67l65.14,108.21Z"/><path class="cls-1" d="M1254.9,125.79v-113h19.74V106h76v19.75Z"/><path class="cls-1" d="M888.91,117.53l-1.9,1.06a160.85,160.85,0,0,1-30.21,12.46c.89-6.92,1.87-13.71,3.26-20.39q.59-2.86,1.26-5.69a5.25,5.25,0,0,0,2.28-1A123.09,123.09,0,0,0,875,111,125.32,125.32,0,0,0,888.91,117.53Z"/><path class="cls-1" d="M859.68,92.69c-.12.4-.23.81-.33,1.22a5.56,5.56,0,0,0-1.8.66c-1-.8-1.88-1.61-2.81-2.44C856.38,92.36,858,92.55,859.68,92.69Z"/><path class="cls-1" d="M919.13,125.29a3.8,3.8,0,0,1-7.43-1.13A118.94,118.94,0,0,1,892.83,119h0c-1.48.79-3,1.53-4.47,2.27a113.38,113.38,0,0,1-31.57,9.87s0-.06,0-.09h-.06a84.45,84.45,0,0,1-.39-21c.2-2,.46-4,.8-6a5.61,5.61,0,0,1-2.43-4.63,5.46,5.46,0,0,1,.37-2c-2.44-2.08-4.76-4.24-7-6.52v0A74.48,74.48,0,0,1,820,78.47,87.65,87.65,0,0,0,845,87.62,86.37,86.37,0,0,1,834.9,73.84l-.34-.61a5.15,5.15,0,0,1-1.18.14,5.32,5.32,0,0,1-3.3-9.49,58.33,58.33,0,0,1-2.28-7,53.67,53.67,0,0,1-1.51-9.07,46.07,46.07,0,0,1,.22-9.1,57.1,57.1,0,0,0,.83,9,57.14,57.14,0,0,0,2.27,8.66,58.27,58.27,0,0,0,2.63,6.51,6,6,0,0,1,1.14-.11,5.31,5.31,0,0,1,3.77,9.05c.1.17.2.32.31.49a96.16,96.16,0,0,0,11.1,13.87c.81.85,1.64,1.68,2.48,2.51,1.22.16,2.43.3,3.65.43,2,.18,4,.32,5.95.39,0-.07,0-.12.05-.18a98.94,98.94,0,0,1,8.61-19.46,85.54,85.54,0,0,1,9.19-13A4.29,4.29,0,1,1,881.4,58a4,4,0,0,1-1.79-.41c-2.5,4.62-4.86,9.22-7,13.95a182.11,182.11,0,0,0-7,18c2.38,0,4.77-.13,7.15-.33a101,101,0,0,0,17.85-3c2.27-.58,4.53-1.23,6.75-2a5.12,5.12,0,0,1,0-.56,6,6,0,0,1,4.6-5.86c0-1.09-.05-2.19-.08-3.28s-.08-2-.13-3a9.58,9.58,0,0,1-2-18.55c-.17-1-.35-2-.54-3l-.57-3L898,44c-.4-2-1-4-1.51-6s-1.14-3.95-1.77-5.9-1.28-3.85-2-5.72a4,4,0,0,1-.78.07,5.46,5.46,0,0,1-5.3-4.15A146.28,146.28,0,0,0,865,21,128,128,0,0,0,836,24.77a68.21,68.21,0,0,0,20.53,106.34l.08.06.13.05h0a68.29,68.29,0,0,0,69.45-5.32C923.85,125.78,921.49,125.59,919.13,125.29ZM887,1.87a68.1,68.1,0,0,0-50.91,22.8,84,84,0,0,1,28.64-7.36,106.82,106.82,0,0,1,22.82.43,4.7,4.7,0,0,1,.94-.95c-.27-.57-.55-1.14-.83-1.7-1.85-3.71-4-7.25-6.22-10.8a72,72,0,0,1,7.85,9.85l1,1.68a4.93,4.93,0,0,1,1.55-.23,5.45,5.45,0,0,1,5.18,3.74,112.63,112.63,0,0,1,26.45,9,92.66,92.66,0,0,1,22.06,14.88,2.66,2.66,0,0,1,1.45-.43,2.77,2.77,0,0,1,2.77,2.77,2.73,2.73,0,0,1-1.59,2.49c-.81,10.09-4.44,20-9.64,28.76-.74,1.22-1.45,2.45-2.2,3.66L934,84c-.79,1.18-1.7,2.28-2.57,3.4s-1.73,2.26-2.67,3.32C926.85,92.84,925,95,922.94,97c-1,1-2,2-3,3l-3.17,2.84a122,122,0,0,1-20.58,14.43,150.33,150.33,0,0,0,15.93,5.33,3.75,3.75,0,0,1,3.42-2.19,3.82,3.82,0,0,1,3.81,3.81,1.55,1.55,0,0,1,0,.21c2.34.52,4.72,1,7.09,1.43A68.21,68.21,0,0,0,887,1.87Zm60,46.48a3.79,3.79,0,0,1-.58-.05,72.1,72.1,0,0,1-21.21,25.51,89.05,89.05,0,0,1-15.85,9.66,1.06,1.06,0,0,1,0,.25,6,6,0,0,1-6,6h-.07a93.74,93.74,0,0,1-2.21,9.69c.28-3.32.51-6.63.66-9.93a5.88,5.88,0,0,1-2.86-1.78c-2.41.84-4.86,1.57-7.33,2.22a101.17,101.17,0,0,1-18.55,2.9c-2.82.14-5.65.19-8.48.11-.22.72-.44,1.44-.65,2.16h0a5.6,5.6,0,0,1,1.83,5.75c3.53,2.51,7.2,4.83,11,7a143.55,143.55,0,0,0,15.52,7.7l1.94-1.15c2.39-1.37,4.66-3,7-4.47,1.15-.76,2.26-1.58,3.37-2.39l3.35-2.44,3.2-2.6c1.08-.86,2.15-1.72,3.16-2.65a119,119,0,0,0,21.84-24.6,80,80,0,0,0,11.69-27A2.25,2.25,0,0,1,947.06,48.35Zm-2.76-2.76a2.76,2.76,0,0,1,.78-1.92A144,144,0,0,0,922,31.8a150.16,150.16,0,0,0-25.57-7.7,5.6,5.6,0,0,1-1,1.14A95.94,95.94,0,0,1,900,37.05c.61,2,1.22,4.06,1.7,6.12l.74,3.08.62,3.11c.19,1.06.37,2.11.54,3.16A9.57,9.57,0,0,1,905,71.43c0,1,0,2.11-.08,3.15s-.07,2.18-.15,3.25a6,6,0,0,1,3.47,2.23,95.4,95.4,0,0,0,15.3-8.67A82.3,82.3,0,0,0,946,48.15,2.76,2.76,0,0,1,944.3,45.59Z"/><path class="cls-1" d="M836.11,24.68s0,.05-.08.09l-.25.06Z"/><path class="cls-1" d="M856.8,131.05s0,.06,0,.09,0,.05,0,.08,0-.05,0-.08,0,0,0-.08Z"/><path class="cls-1" d="M927.3,126l-1.08,0a.74.74,0,0,0,.17-.12C926.7,125.86,927,125.91,927.3,126Z"/></svg>