<svg xmlns="http://www.w3.org/2000/svg" xmlns:xlink="http://www.w3.org/1999/xlink" viewBox="0 0 369.91 214.99"><defs><style>.cls-1{isolation:isolate;}.cls-2{opacity:0.02;}.cls-3{opacity:0.05;}.cls-4{opacity:0.07;}.cls-5{opacity:0.1;}.cls-6{opacity:0.12;}.cls-7{opacity:0.15;}.cls-8{opacity:0.17;}.cls-9{opacity:0.2;}.cls-10{opacity:0.22;}.cls-11{opacity:0.25;}.cls-12{opacity:0.27;}.cls-13{opacity:0.3;}.cls-14{fill:url(#linear-gradient);}.cls-15{fill:#231f20;}.cls-15,.cls-33{mix-blend-mode:color-dodge;}.cls-16,.cls-17{fill:#ebdef3;}.cls-16{opacity:0.5;}.cls-17,.cls-18{opacity:0.7;}.cls-19{fill:url(#linear-gradient-2);}.cls-20{fill:url(#linear-gradient-3);}.cls-21{fill:url(#linear-gradient-4);}.cls-22{fill:url(#linear-gradient-5);}.cls-23{fill:url(#linear-gradient-6);}.cls-24{fill:url(#linear-gradient-7);}.cls-25{fill:#d0b3e0;mix-blend-mode:multiply;}.cls-26{fill:url(#New_Gradient_Swatch_copy_9);}.cls-27{fill:url(#New_Gradient_Swatch_copy_9-2);}.cls-28{fill:url(#New_Gradient_Swatch_copy_9-3);}.cls-29{fill:url(#New_Gradient_Swatch_copy_9-4);}.cls-30{fill:url(#New_Gradient_Swatch_copy_9-5);}.cls-31{fill:url(#New_Gradient_Swatch_copy_9-6);}.cls-32{opacity:0.15;}.cls-34{fill:url(#linear-gradient-8);}</style><linearGradient id="linear-gradient" x1="-4484.2" y1="2238.86" x2="-4178.78" y2="2238.86" gradientTransform="matrix(0.87, 0.5, -1, 0.58, 6145.51, 964.08)" gradientUnits="userSpaceOnUse"><stop offset="0" stop-color="#2d085d"/><stop offset="1" stop-color="#410f82"/></linearGradient><linearGradient id="linear-gradient-2" x1="118.01" y1="-2.3" x2="226.67" y2="185.45" gradientUnits="userSpaceOnUse"><stop offset="0.04" stop-color="#6b24d6"/><stop offset="0.32" stop-color="#7a1cd0"/><stop offset="0.86" stop-color="#a306c1"/><stop offset="0.98" stop-color="#ad00bd"/></linearGradient><linearGradient id="linear-gradient-3" x1="177.52" y1="-36.74" x2="286.18" y2="151" xlink:href="#linear-gradient-2"/><linearGradient id="linear-gradient-4" x1="128.1" y1="-8.14" x2="236.76" y2="179.6" xlink:href="#linear-gradient-2"/><linearGradient id="linear-gradient-5" x1="167.42" y1="-30.89" x2="276.08" y2="156.85" xlink:href="#linear-gradient-2"/><linearGradient id="linear-gradient-6" x1="273.41" y1="61.93" x2="276.26" y2="66.86" xlink:href="#linear-gradient-2"/><linearGradient id="linear-gradient-7" x1="214.24" y1="74.63" x2="240.59" y2="138.28" xlink:href="#linear-gradient-2"/><linearGradient id="New_Gradient_Swatch_copy_9" x1="83.46" y1="33.45" x2="209.75" y2="162.3" gradientUnits="userSpaceOnUse"><stop offset="0.04" stop-color="#9f19ab"/><stop offset="0.24" stop-color="#ae25b1"/><stop offset="0.65" stop-color="#d744bf"/><stop offset="1" stop-color="#ff63ce"/></linearGradient><linearGradient id="New_Gradient_Swatch_copy_9-2" x1="71.75" y1="44.93" x2="198.03" y2="173.78" xlink:href="#New_Gradient_Swatch_copy_9"/><linearGradient id="New_Gradient_Swatch_copy_9-3" x1="87.06" y1="29.91" x2="213.35" y2="158.77" xlink:href="#New_Gradient_Swatch_copy_9"/><linearGradient id="New_Gradient_Swatch_copy_9-4" x1="79.26" y1="37.57" x2="205.54" y2="166.42" xlink:href="#New_Gradient_Swatch_copy_9"/><linearGradient id="New_Gradient_Swatch_copy_9-5" x1="76.43" y1="40.34" x2="202.72" y2="169.19" xlink:href="#New_Gradient_Swatch_copy_9"/><linearGradient id="New_Gradient_Swatch_copy_9-6" x1="90.03" y1="27.01" x2="216.31" y2="155.86" xlink:href="#New_Gradient_Swatch_copy_9"/><linearGradient id="linear-gradient-8" x1="3256.79" y1="14111.6" x2="3157.82" y2="14169.3" gradientTransform="matrix(0.5, 0.87, -0.87, 0.5, 10722.02, -9773.5)" gradientUnits="userSpaceOnUse"><stop offset="0" stop-color="#dc3daa"/><stop offset="0.25" stop-color="#a32d7e"/><stop offset="0.77" stop-color="#2f0d24"/><stop offset="1"/></linearGradient></defs><g class="cls-1"><g id="Layer_1" data-name="Layer 1"><g id="_2" data-name="2"><path class="cls-2" d="M256.62,130.6,192.77,95.3a6.91,6.91,0,0,1,0-12l71.89-41.92a6.92,6.92,0,0,1,6.93,0L335.4,76.7a6.91,6.91,0,0,1,0,12l-71.89,41.92A6.92,6.92,0,0,1,256.62,130.6Z"/><path class="cls-3" d="M256.86,129.18,194.75,94.87a6.94,6.94,0,0,1,0-12l69.2-40.36a7,7,0,0,1,7,0L333,76.78a6.94,6.94,0,0,1,0,12l-69.21,40.37A7,7,0,0,1,256.86,129.18Z"/><path class="cls-4" d="M257.1,127.76,196.73,94.45a7,7,0,0,1,0-12.08L263.2,43.56a7,7,0,0,1,7,0l60.38,33.31a7,7,0,0,1,0,12.08l-66.52,38.8A7,7,0,0,1,257.1,127.76Z"/><path class="cls-5" d="M257.34,126.34,198.7,94a7,7,0,0,1,0-12.14l63.83-37.25a7,7,0,0,1,7,0l58.64,32.31a7,7,0,0,1,0,12.14l-63.84,37.25A7,7,0,0,1,257.34,126.34Z"/><path class="cls-6" d="M257.58,124.91,200.68,93.6a7,7,0,0,1,0-12.2l61.14-35.7a7.06,7.06,0,0,1,7.07,0L325.75,77a7.05,7.05,0,0,1,.05,12.2l-61.15,35.69A7.06,7.06,0,0,1,257.58,124.91Z"/><path class="cls-7" d="M257.82,123.49,202.66,93.17a7.08,7.08,0,0,1,0-12.26l58.45-34.13a7.11,7.11,0,0,1,7.11,0l55.16,30.32a7.08,7.08,0,0,1,0,12.26l-58.45,34.13A7.11,7.11,0,0,1,257.82,123.49Z"/><path class="cls-8" d="M258.06,122.07,204.64,92.74a7.12,7.12,0,0,1,0-12.32l55.77-32.57a7.12,7.12,0,0,1,7.14,0l53.43,29.33a7.11,7.11,0,0,1,0,12.31L265.2,122A7.12,7.12,0,0,1,258.06,122.07Z"/><path class="cls-9" d="M258.3,120.65,206.62,92.32a7.15,7.15,0,0,1-.05-12.38l53.08-31a7.14,7.14,0,0,1,7.18,0l51.68,28.33a7.15,7.15,0,0,1,.05,12.38l-53.08,31A7.19,7.19,0,0,1,258.3,120.65Z"/><path class="cls-10" d="M258.55,119.22l-50-27.33a7.19,7.19,0,0,1,0-12.44L258.94,50a7.2,7.2,0,0,1,7.21,0l50,27.33a7.19,7.19,0,0,1,0,12.44l-50.4,29.47A7.16,7.16,0,0,1,258.55,119.22Z"/><path class="cls-11" d="M258.79,117.8,210.58,91.47a7.22,7.22,0,0,1-.06-12.5l47.71-27.91a7.23,7.23,0,0,1,7.25,0l48.21,26.34a7.23,7.23,0,0,1,.05,12.5L266,117.77A7.21,7.21,0,0,1,258.79,117.8Z"/><path class="cls-12" d="M259,116.38,212.55,91a7.26,7.26,0,0,1-.05-12.56l45-26.35a7.28,7.28,0,0,1,7.28,0l46.48,25.34A7.26,7.26,0,0,1,311.33,90l-45,26.35A7.28,7.28,0,0,1,259,116.38Z"/><path class="cls-13" d="M259.27,115,214.53,90.61A7.29,7.29,0,0,1,214.48,78L256.81,53.2a7.31,7.31,0,0,1,7.32,0l44.73,24.34a7.3,7.3,0,0,1,.06,12.62l-42.34,24.8A7.29,7.29,0,0,1,259.27,115Z"/></g><g id="_1" data-name="1"><polygon class="cls-14" points="171.38 214.99 0 115.4 198.53 1.03 369.91 100.62 171.38 214.99"/><polygon class="cls-15" points="171.38 212.92 3 113.67 0 115.4 171.38 214.99 369.8 100.67 366.8 100.32 171.38 212.92"/><path class="cls-16" d="M143.36,146.45l-14.11-8.14-4,2.32,14.11,8.14Zm4.43-3.51,14.73,8.5,4-2.32-14.73-8.5ZM169.93,145l6.43,3.71,4-2.32L174,142.69Zm-17.52,11.31,14.11,8.14,4-2.32L156.43,154Zm13.42-3,6.31,3.64,4-2.32L169.85,151ZM83.69,105.93l8.09,4.67,4-2.32-8.09-4.67Zm21.71,18.61-5-2.88-4,2.32,5,2.88Zm4.5-8.12L99.11,110.2l-4,2.32,10.79,6.23Zm23.86,13.78-20.54-11.86-4,2.32,20.54,11.86ZM137.82,154l-14.73-8.51-4,2.32,14.73,8.51ZM97.94,103.45l22.41,12.93,4-2.32L102,101.13ZM152.5,135l14.11,8.14,4-2.32-14.11-8.14Zm-14.39,34.54,4-2.32-5.5-3.18-4,2.32Zm29,1.36-25.93-15-4,2.32,25.93,15ZM153.2,130.71,136,120.77l-4,2.32L149.18,133Zm-51.27,2.53L84.5,123.18l-4,2.33,17.43,10.06Zm46.56,5.46-11.41-6.59-4,2.33L144.47,141ZM81.18,121.27,70.4,115l-4,2.32,10.78,6.23ZM70.67,109.13l22.41,12.94,4-2.33L74.69,106.81Zm16.38,26.24-22.4-12.94-4,2.32L83,137.69Zm38.88,1-17.21-9.94-4,2.32,17.21,9.94Zm7.38,25.69-14.11-8.15-4,2.32,14.11,8.15ZM94.65,144.4l17.22,9.94,4-2.32-17.22-10Zm25.12-.85-14.52-8.39-4,2.32,14.52,8.39Zm-33.42-4,5,2.88,4-2.32-5-2.88Zm117.88,20.57-4,2.33,18,10.31,4-2.32ZM185.7,175.54l13.92,8,4-2.32-13.92-8Zm-19-.27,23.66,13.61,4-2.32L170.7,173Zm-68-76.06L77.79,87.3l-4,2.32,20.85,11.91Zm81,51.43,17.21,9.94,4-2.32-17.21-9.94Zm-56-32.34,5,2.87,4-2.32-5-2.87Zm89,57.36-33.73-19.41-4,2.32L208.59,178Zm-25.5-3.95-13.26-7.65-4,2.32L183.09,174Zm-34-19.63-6.43-3.71-4,2.32,6.43,3.71ZM84.39,101.69l-15.88-9-4,2.32,15.88,9ZM61.33,120.52,40.68,108.73l-4,2.32,20.65,11.79Zm5.75-7.4L50,103.37l-4,2.32,17.12,9.75Zm4.3-8.23L59.24,98l-4,2.33,12.14,6.87Z"/><polygon class="cls-17" points="339.3 103.13 322.08 93.19 318.06 95.51 335.28 105.45 339.3 103.13"/><polygon class="cls-17" points="292.95 76.25 280.38 68.99 276.36 71.31 288.93 78.58 292.95 76.25"/><polygon class="cls-17" points="290.31 85.44 271.1 74.35 267.08 76.67 286.29 87.76 290.31 85.44"/><polygon class="cls-17" points="318.68 91.11 296.27 78.17 292.25 80.49 314.66 93.43 318.68 91.11"/><polygon class="cls-17" points="315.83 100.17 305.04 93.95 301.02 96.27 311.81 102.5 315.83 100.17"/><polygon class="cls-17" points="293.63 87.36 289.61 89.68 297.7 94.35 301.72 92.03 293.63 87.36"/><g class="cls-18"><polygon class="cls-17" points="253.26 97.49 261.35 102.17 265.37 99.84 257.28 95.17 253.26 97.49"/><polygon class="cls-17" points="274.97 116.1 269.99 113.22 265.97 115.55 270.95 118.42 274.97 116.1"/><polygon class="cls-17" points="279.48 107.99 268.69 101.76 264.67 104.08 275.46 110.31 279.48 107.99"/><polygon class="cls-17" points="267.51 95.01 289.92 107.95 293.94 105.63 271.53 92.69 267.51 95.01"/><polygon class="cls-17" points="240.25 100.69 262.65 113.63 266.67 111.31 244.27 98.37 240.25 100.69"/><polygon class="cls-17" points="268.21 90.78 255.43 83.39 251.41 85.72 264.19 93.1 268.21 90.78"/><polygon class="cls-17" points="293.24 109.86 298.22 112.74 302.24 110.42 297.26 107.54 293.24 109.86"/><polygon class="cls-17" points="253.96 93.26 246.16 88.75 242.13 91.07 249.94 95.58 253.96 93.26"/><polygon class="cls-17" points="240.95 96.46 236.88 94.11 232.86 96.43 236.93 98.78 240.95 96.46"/></g><polygon class="cls-19" points="194.84 65.07 119.08 64.93 195.08 108.81 194.84 65.07"/><polygon class="cls-20" points="197.42 19.7 197.66 63.44 273.42 63.58 197.42 19.7"/><polygon class="cls-21" points="194.83 63.44 194.59 19.7 119.07 63.3 194.83 63.44"/><polygon class="cls-22" points="273.43 65.21 197.66 65.07 197.9 108.81 273.43 65.21"/><polygon class="cls-23" points="274.83 64.4 274.83 64.4 274.83 64.4 274.83 64.4"/><path class="cls-24" d="M241,110.52a11.66,11.66,0,0,0-7.55-1.09c.8-1.48.17-3.17-1.87-4.35a11.7,11.7,0,0,0-10.61,0c-5.33,3.08-1.9,12.68-1.9,12.68s16.63,2,22-1.1C243.93,115,243.92,112.21,241,110.52Z"/><polygon class="cls-25" points="212.39 65.83 196.27 75.14 180.06 65.78 167.89 72.8 196.35 89.22 224.63 72.9 212.39 65.83"/><polygon class="cls-25" points="196.25 71.56 209.28 64.04 196.17 56.47 183.15 63.99 196.25 71.56"/><polygon class="cls-25" points="196.15 52.93 227.68 71.13 241.38 63.23 196.06 37.06 151.03 63.06 164.81 71.02 196.15 52.93"/></g><g id="_1-2" data-name="1"><polygon class="cls-26" points="158.65 102.4 138.11 90.55 134.09 92.87 154.63 104.72 158.65 102.4"/><polygon class="cls-27" points="109.28 73.9 81.99 58.28 77.97 60.6 105.25 76.22 109.28 73.9"/><polygon class="cls-28" points="161.97 104.32 157.95 106.64 163.34 109.75 167.36 107.44 161.97 104.32"/><polygon class="cls-29" points="134.79 88.63 124 82.4 119.98 84.72 130.77 90.95 134.79 88.63"/><polygon class="cls-30" points="112.59 75.81 108.58 78.14 116.67 82.81 120.69 80.49 112.59 75.81"/><polygon class="cls-31" points="166.66 111.67 181.39 120.18 185.41 117.86 170.68 109.35 166.66 111.67"/></g><g id="_1-3" data-name="1" class="cls-32"><polygon points="171.48 122.08 150.94 110.23 146.93 112.55 167.46 124.4 171.48 122.08"/><polygon points="122.11 93.58 94.83 77.96 90.81 80.28 118.09 95.9 122.11 93.58"/><polygon points="174.8 124 170.78 126.32 176.18 129.43 180.19 127.11 174.8 124"/><polygon points="147.63 108.31 136.84 102.08 132.82 104.4 143.61 110.63 147.63 108.31"/><polygon points="125.43 95.49 121.41 97.81 129.5 102.49 133.52 100.17 125.43 95.49"/><polygon points="179.49 131.35 194.22 139.85 198.24 137.53 183.51 129.03 179.49 131.35"/></g><g id="_1-4" data-name="1" class="cls-33"><path class="cls-34" d="M.65,14.72,50.86,42.11,101.08,69.5a1.72,1.72,0,0,1,.64,2.36h0a1.73,1.73,0,0,1-2.37.65L50,43.62Z"/></g></g></g></svg>