<svg xmlns="http://www.w3.org/2000/svg" xmlns:xlink="http://www.w3.org/1999/xlink" viewBox="0 0 413.98 241.12"><defs><style>.cls-1{isolation:isolate;}.cls-2{fill:url(#linear-gradient);}.cls-10,.cls-3,.cls-8{fill:#ebdef3;}.cls-4{fill:url(#linear-gradient-2);}.cls-5{fill:url(#linear-gradient-3);}.cls-6{fill:url(#linear-gradient-4);}.cls-7{fill:#d1b4e3;mix-blend-mode:multiply;}.cls-8{opacity:0.5;}.cls-9{fill:#231f20;mix-blend-mode:color-dodge;}.cls-10{opacity:0.8;}.cls-11{fill:#c4b0d1;}.cls-12{fill:url(#linear-gradient-5);}.cls-13{fill:url(#New_Gradient_Swatch_copy_9);}.cls-14{fill:url(#New_Gradient_Swatch_copy_9-2);}.cls-15{fill:url(#New_Gradient_Swatch_copy_9-3);}</style><linearGradient id="linear-gradient" x1="308.01" y1="118.07" x2="281.25" y2="257.87" gradientUnits="userSpaceOnUse"><stop offset="0.04" stop-color="#6b24d6"/><stop offset="0.32" stop-color="#7a1cd0"/><stop offset="0.86" stop-color="#a306c1"/><stop offset="0.98" stop-color="#ad00bd"/></linearGradient><linearGradient id="linear-gradient-2" x1="44.46" y1="-94.66" x2="309.69" y2="406.77" xlink:href="#linear-gradient"/><linearGradient id="linear-gradient-3" x1="250.86" y1="16.18" x2="248.14" y2="236.03" gradientUnits="userSpaceOnUse"><stop offset="0" stop-color="#2d085d"/><stop offset="1" stop-color="#410f82"/></linearGradient><linearGradient id="linear-gradient-4" x1="139.59" y1="107.57" x2="131.53" y2="280.16" xlink:href="#linear-gradient-3"/><linearGradient id="linear-gradient-5" x1="-4396.6" y1="2204.87" x2="-4091.42" y2="2204.87" gradientTransform="matrix(0.87, 0.5, -1, 0.58, 6149.62, 948.75)" xlink:href="#linear-gradient-3"/><linearGradient id="New_Gradient_Swatch_copy_9" x1="249.9" y1="65.24" x2="341.43" y2="65.24" gradientUnits="userSpaceOnUse"><stop offset="0.04" stop-color="#9f19ab"/><stop offset="0.24" stop-color="#ae25b1"/><stop offset="0.65" stop-color="#d744bf"/><stop offset="1" stop-color="#ff63ce"/></linearGradient><linearGradient id="New_Gradient_Swatch_copy_9-2" x1="238.42" y1="41.99" x2="316.96" y2="44.04" xlink:href="#New_Gradient_Swatch_copy_9"/><linearGradient id="New_Gradient_Swatch_copy_9-3" x1="222.7" y1="27.48" x2="368.46" y2="27.48" xlink:href="#New_Gradient_Swatch_copy_9"/></defs><g class="cls-1"><g id="Layer_1" data-name="Layer 1"><g id="_2" data-name="2"><path class="cls-2" d="M315.31,211.84l-68.67-39.65c-6.93-4-6.06-11,1.94-15.6h0c8-4.62,20.1-5.12,27-1.12l68.67,39.64c6.93,4,6.06,11-1.94,15.61h0C334.34,215.34,322.24,215.84,315.31,211.84Z" transform="translate(0)"/><polygon class="cls-3" points="314.2 192.45 312.4 186.42 309.51 188.08 290.95 177.37 288.08 179.03 306.64 189.74 303.75 191.41 314.2 192.45"/><path class="cls-3" d="M334.07,202.62l-.11-.06,2.7-1.56c1.72-1,1.72-2.62,0-3.62l-2.17-1.25a7,7,0,0,0-6.28,0l-2.69,1.56-.11-.06a3.23,3.23,0,0,0-2.92,0l-6.69,3.86a.89.89,0,0,0,0,1.69l8.68,5a3.23,3.23,0,0,0,2.92,0l6.69-3.86A.89.89,0,0,0,334.07,202.62Zm-9.39,1-1.58.91-1.08-.63,1.57-.91c-.23-.37-.09-.79.42-1.08a2.78,2.78,0,0,1,2.54,0c.7.41.71,1.06,0,1.47A2.85,2.85,0,0,1,324.68,203.66Zm7.46-2.16-4.82-2.78,2.16-1.24a3.91,3.91,0,0,1,3.57,0l1.23.71c1,.57,1,1.49,0,2.06Z" transform="translate(0)"/></g><g id="_2-2" data-name="2"><polygon class="cls-4" points="162.17 241.12 0 147.49 178.04 44.62 340.21 138.25 162.17 241.12"/><polygon class="cls-5" points="314.31 153.11 152.15 59.48 185.41 40.36 347.58 133.99 314.31 153.11"/><polygon class="cls-3" points="248.87 165.18 129.37 96.18 154.32 82.18 273.82 151.18 248.87 165.18"/><polygon class="cls-3" points="213.58 185.89 94.08 116.89 119.03 102.89 238.54 171.89 213.58 185.89"/><path class="cls-6" d="M154.09,216.13,92.17,180.38c-6-3.47-5.26-9.53,1.68-13.54h0c6.94-4,17.44-4.44,23.45-1l61.92,35.75c6,3.47,5.26,9.53-1.68,13.54h0C170.6,219.17,160.1,219.6,154.09,216.13Z" transform="translate(0)"/><polygon class="cls-7" points="209.9 206.86 58.11 119.23 59.5 118.64 211.28 206.27 209.9 206.86"/><path class="cls-8" d="M314,133.28h8.32c.72,0,1.3-.33,1.3-.75s-.59-.76-1.31-.76H314l0-4.8c0-.42-.59-.76-1.31-.76s-1.31.34-1.31.75l0,4.8h-8.32c-.72,0-1.3.33-1.3.75a.64.64,0,0,0,.39.53,1.81,1.81,0,0,0,.92.23h8.32l0,4.8a.69.69,0,0,0,.39.54,2,2,0,0,0,.92.22c.73,0,1.31-.34,1.31-.75Z" transform="translate(0)"/><polygon class="cls-9" points="162.17 239.39 2.49 146.05 0 147.49 162.17 241.12 347.22 134.01 344.73 133.72 162.17 239.39"/><polygon class="cls-10" points="151.34 199.01 149.53 192.97 146.64 194.64 128.08 183.93 125.21 185.58 143.77 196.3 140.88 197.97 151.34 199.01"/><polygon class="cls-10" points="167.67 206.75 163.12 209.38 158.55 206.74 155.12 208.72 163.14 213.35 171.12 208.75 167.67 206.75"/><polygon class="cls-10" points="163.12 208.37 166.79 206.25 163.09 204.11 159.42 206.23 163.12 208.37"/><polygon class="cls-10" points="163.09 203.11 171.99 208.25 175.85 206.02 163.06 198.63 150.36 205.97 154.25 208.22 163.09 203.11"/><path class="cls-11" d="M157.16,101.22a3.12,3.12,0,0,1-1.09-2.09c0-.44.61-.79,1.37-.79a13.31,13.31,0,0,0,3-.32,2.78,2.78,0,0,0,1.91,0c.5-.29.66-.68.43-.93,2-1.27,2.92-2.78.08-4.42a7.48,7.48,0,0,0-7.66,0,2.22,2.22,0,0,0-1.62.25.66.66,0,0,0-.06,1.1,3,3,0,0,0-.56,1.71c0,.44-.61.81-1.37.8a11.65,11.65,0,0,1-3.62-.63,6,6,0,0,0-4.71.31L141,97.48a.48.48,0,0,0,0,.9l11.83,6.83a1.7,1.7,0,0,0,1.55,0l2.21-1.27C157.89,103.2,158.07,102.07,157.16,101.22Z" transform="translate(0)"/><path class="cls-11" d="M126.76,119.11l-.11-.06,2.7-1.56c1.72-1,1.71-2.61,0-3.62l-2.17-1.25a7,7,0,0,0-6.28,0l-2.69,1.55-.11-.06a3.23,3.23,0,0,0-2.92,0L108.47,118a.89.89,0,0,0,0,1.68l8.68,5a3.23,3.23,0,0,0,2.92,0l6.69-3.86A.89.89,0,0,0,126.76,119.11Zm-9.39,1-1.58.91-1.08-.63,1.57-.91c-.23-.36-.09-.79.42-1.08a2.84,2.84,0,0,1,2.54,0c.7.41.71,1.07,0,1.47A2.85,2.85,0,0,1,117.37,120.15Zm7.46-2.15L120,115.22l2.16-1.25a4,4,0,0,1,3.57,0l1.23.71c1,.57,1,1.5,0,2.06Z" transform="translate(0)"/></g><g id="_2-3" data-name="2"><polygon class="cls-12" points="355 183.55 183.61 83.95 242.6 50.01 413.98 149.6 355 183.55"/><polygon class="cls-9" points="355 181.47 186.61 82.22 183.61 83.95 355 183.55 413.86 149.64 410.87 149.3 355 181.47"/><polygon class="cls-3" points="358.1 163.3 219.34 83.01 244.29 69.01 383.06 149.3 358.1 163.3"/><path class="cls-11" d="M360.76,157.83l0-4.66c0-.48-.58-.89-1.36-1v-1.37c4.11-.32,7.27-2.35,7.25-4.81,0-2.69-3.8-4.88-8.47-4.89s-8.43,2.17-8.42,4.86c0,2.46,3.2,4.5,7.31,4.84v1.36c-.78.12-1.36.53-1.35,1l0,4.65c0,.59.83,1.06,1.84,1.06h1.38C359.94,158.89,360.76,158.42,360.76,157.83Zm-2.57-8.65c-3.08,0-5.57-1.45-5.58-3.23s2.47-3.2,5.54-3.2,5.57,1.45,5.58,3.22S361.26,149.18,358.19,149.18Z" transform="translate(0)"/></g><g id="_2-4" data-name="2"><polygon class="cls-13" points="295.68 61.42 269.52 46.32 249.9 57.65 295.81 84.15 341.43 57.81 321.68 46.41 295.68 61.42"/><polygon class="cls-14" points="295.52 31.31 274.51 43.44 295.65 55.65 316.66 43.52 295.52 31.31"/><polygon class="cls-15" points="295.35 0 222.7 41.94 244.94 54.78 295.49 25.59 346.36 54.97 368.46 42.21 295.35 0"/><polygon class="cls-9" points="295.81 82.1 251.68 56.62 249.9 57.65 295.81 84.15 341.43 57.81 339.65 56.79 295.81 82.1"/><polygon class="cls-9" points="346.36 52.91 295.49 23.54 244.94 52.73 224.48 40.92 222.7 41.94 244.94 54.78 295.49 25.59 346.36 54.97 368.46 42.21 366.68 41.18 346.36 52.91"/><polygon class="cls-9" points="295.65 55.65 316.66 43.52 314.88 42.49 295.65 53.59 276.29 42.41 274.51 43.44 295.65 55.65"/></g></g></g></svg>