<svg xmlns="http://www.w3.org/2000/svg" xmlns:xlink="http://www.w3.org/1999/xlink" viewBox="0 0 604.1 368.52"><defs><style>.cls-1{isolation:isolate;}.cls-2{opacity:0.2;}.cls-3{opacity:0;}.cls-4{opacity:0.09;}.cls-5{opacity:0.18;}.cls-6{opacity:0.27;}.cls-7{opacity:0.36;}.cls-8{opacity:0.45;}.cls-9{opacity:0.55;}.cls-10{opacity:0.64;}.cls-11{opacity:0.73;}.cls-12{opacity:0.82;}.cls-13{opacity:0.91;}.cls-14{fill:url(#linear-gradient);}.cls-15{fill:url(#linear-gradient-2);}.cls-16{fill:url(#linear-gradient-3);}.cls-17{fill:url(#linear-gradient-4);}.cls-18{fill:url(#linear-gradient-5);}.cls-19{fill:url(#linear-gradient-6);}.cls-20{fill:url(#linear-gradient-7);}.cls-21{fill:url(#linear-gradient-8);}.cls-22{fill:url(#linear-gradient-9);}.cls-23{fill:url(#linear-gradient-10);}.cls-24{fill:url(#linear-gradient-11);}.cls-25{fill:url(#linear-gradient-12);}.cls-26{fill:url(#linear-gradient-13);}.cls-27{fill:url(#linear-gradient-14);}.cls-28{fill:url(#linear-gradient-15);}.cls-29{fill:url(#linear-gradient-16);}.cls-30{fill:url(#linear-gradient-17);}.cls-31{fill:url(#linear-gradient-18);}.cls-32{fill:url(#linear-gradient-19);}.cls-33{fill:url(#linear-gradient-20);}.cls-34{fill:url(#linear-gradient-21);}.cls-35{fill:url(#linear-gradient-22);}.cls-36{fill:url(#linear-gradient-23);}.cls-37{fill:url(#linear-gradient-24);}.cls-38{fill:url(#linear-gradient-25);}.cls-39{fill:url(#linear-gradient-26);}.cls-40{fill:url(#linear-gradient-27);}.cls-41{fill:url(#linear-gradient-28);}.cls-42{fill:url(#linear-gradient-29);}.cls-43{fill:url(#linear-gradient-30);}.cls-44{fill:url(#linear-gradient-31);}.cls-45{fill:url(#linear-gradient-32);}.cls-46{fill:url(#linear-gradient-33);}.cls-47{fill:url(#linear-gradient-34);}.cls-48{fill:url(#linear-gradient-35);}.cls-49{fill:url(#linear-gradient-36);}.cls-50{fill:url(#linear-gradient-37);}.cls-51{fill:url(#linear-gradient-38);}.cls-52{fill:url(#linear-gradient-39);}.cls-53{fill:url(#linear-gradient-40);}.cls-54{fill:url(#linear-gradient-41);}.cls-55{fill:url(#linear-gradient-42);}.cls-56{fill:url(#linear-gradient-43);}.cls-57{fill:#cba6e3;}.cls-58{fill:#cca7e3;}.cls-59{fill:#cca8e4;}.cls-60{fill:#cda9e4;}.cls-61{fill:#cdaae4;}.cls-62{fill:#ceabe4;}.cls-63{fill:#ceace5;}.cls-64{fill:#cfade5;}.cls-65{fill:#cfaee5;}.cls-66{fill:#d0afe6;}.cls-67{fill:#d1b0e6;}.cls-68{fill:#d1b1e6;}.cls-69{fill:#d2b2e6;}.cls-70{fill:#d2b3e7;}.cls-71{fill:#d3b4e7;}.cls-72{fill:#d3b5e7;}.cls-73{fill:#d4b6e7;}.cls-74{fill:#d5b7e8;}.cls-75{fill:#d5b8e8;}.cls-76{fill:#d6b9e8;}.cls-77{fill:#d6bae9;}.cls-78{fill:#d7bbe9;}.cls-79{fill:#d7bce9;}.cls-80{fill:#d8bde9;}.cls-81{fill:#d8beea;}.cls-82{fill:#d9bfea;}.cls-83{fill:#dac0ea;}.cls-84{fill:#dac1eb;}.cls-85{fill:#dbc2eb;}.cls-86{fill:#dcc3eb;}.cls-87{fill:#dcc4ec;}.cls-88{fill:#ddc5ec;}.cls-89{fill:#dec6ec;}.cls-90{fill:#dec7ed;}.cls-91{fill:#dfc8ed;}.cls-92{fill:#dfc9ed;}.cls-93{fill:#e0caed;}.cls-94{fill:#e0cbee;}.cls-95{fill:#e1ccee;}.cls-96{fill:#e1cdee;}.cls-97{fill:#e2ceef;}.cls-98{fill:#e3cfef;}.cls-99{fill:#e3d0ef;}.cls-100{fill:#e4d1ef;}.cls-101{fill:#e4d2f0;}.cls-102{fill:#e5d3f0;}.cls-103{fill:#e5d4f0;}.cls-104{fill:#e6d5f0;}.cls-105{fill:#e7d6f1;}.cls-106{fill:#e7d7f1;}.cls-107{fill:#e8d8f1;}.cls-108{fill:#e8d9f2;}.cls-109{fill:#e9daf2;}.cls-110{fill:#e9dbf2;}.cls-111{fill:#eadcf2;}.cls-112{fill:#eaddf3;}.cls-113{fill:#ebdef3;}.cls-114{fill:url(#linear-gradient-44);}.cls-115{fill:url(#linear-gradient-45);}.cls-116{fill:url(#linear-gradient-46);}.cls-117{fill:url(#linear-gradient-47);}.cls-118,.cls-120,.cls-121{mix-blend-mode:multiply;}.cls-118{fill:url(#linear-gradient-48);}.cls-119{fill:#d1b4e3;}.cls-120,.cls-122{fill:#e5d4ef;}.cls-123{fill:url(#linear-gradient-49);}</style><linearGradient id="linear-gradient" x1="302.43" y1="242.22" x2="302.43" y2="316.69" gradientUnits="userSpaceOnUse"><stop offset="0.04" stop-color="#6b24d6"/><stop offset="0.32" stop-color="#7a1cd0"/><stop offset="0.86" stop-color="#a306c1"/><stop offset="0.98" stop-color="#ad00bd"/></linearGradient><linearGradient id="linear-gradient-2" x1="299.8" y1="232.86" x2="293.88" y2="323.74" xlink:href="#linear-gradient"/><linearGradient id="linear-gradient-3" x1="298.48" y1="222.48" x2="284.4" y2="330.08" xlink:href="#linear-gradient"/><linearGradient id="linear-gradient-4" x1="298.64" y1="211.31" x2="274.09" y2="335.54" xlink:href="#linear-gradient"/><linearGradient id="linear-gradient-5" x1="300.41" y1="199.6" x2="263.04" y2="340" xlink:href="#linear-gradient"/><linearGradient id="linear-gradient-6" x1="303.86" y1="187.62" x2="251.37" y2="343.33" xlink:href="#linear-gradient"/><linearGradient id="linear-gradient-7" x1="309.04" y1="175.68" x2="239.23" y2="345.42" xlink:href="#linear-gradient"/><linearGradient id="linear-gradient-8" x1="315.93" y1="164.08" x2="226.78" y2="346.18" xlink:href="#linear-gradient"/><linearGradient id="linear-gradient-9" x1="324.94" y1="152.26" x2="214.27" y2="345.42" xlink:href="#linear-gradient"/><linearGradient id="linear-gradient-10" x1="337.03" y1="139.26" x2="196.76" y2="350.89" xlink:href="#linear-gradient"/><linearGradient id="linear-gradient-11" x1="351.47" y1="126.91" x2="178.02" y2="354.92" xlink:href="#linear-gradient"/><linearGradient id="linear-gradient-12" x1="368.33" y1="115.48" x2="158.56" y2="356.89" xlink:href="#linear-gradient"/><linearGradient id="linear-gradient-13" x1="387.44" y1="105.39" x2="138.66" y2="356.67" xlink:href="#linear-gradient"/><linearGradient id="linear-gradient-14" x1="408.58" y1="97.08" x2="118.61" y2="354.16" xlink:href="#linear-gradient"/><linearGradient id="linear-gradient-15" x1="431.45" y1="90.92" x2="98.73" y2="349.32" xlink:href="#linear-gradient"/><linearGradient id="linear-gradient-16" x1="455.68" y1="87.22" x2="79.31" y2="342.12" xlink:href="#linear-gradient"/><linearGradient id="linear-gradient-17" x1="480.84" y1="86.18" x2="60.64" y2="332.53" xlink:href="#linear-gradient"/><linearGradient id="linear-gradient-18" x1="506.43" y1="87.93" x2="43.02" y2="320.55" xlink:href="#linear-gradient"/><linearGradient id="linear-gradient-19" x1="532.09" y1="92.73" x2="26.87" y2="306.45" xlink:href="#linear-gradient"/><linearGradient id="linear-gradient-20" x1="557.33" y1="100.65" x2="12.47" y2="290.43" xlink:href="#linear-gradient"/><linearGradient id="linear-gradient-21" x1="581.63" y1="111.68" x2="0.11" y2="272.7" xlink:href="#linear-gradient"/><linearGradient id="linear-gradient-22" x1="604.49" y1="125.71" x2="-10" y2="253.53" xlink:href="#linear-gradient"/><linearGradient id="linear-gradient-23" x1="601.95" y1="130.34" x2="-12.71" y2="250.12" xlink:href="#linear-gradient"/><linearGradient id="linear-gradient-24" x1="601.69" y1="129.77" x2="-12.68" y2="249.5" gradientUnits="userSpaceOnUse"><stop offset="0.04" stop-color="#702ad7"/><stop offset="0.33" stop-color="#7f22d1"/><stop offset="0.9" stop-color="#a80cc1"/><stop offset="0.98" stop-color="#ae08bf"/></linearGradient><linearGradient id="linear-gradient-25" x1="601.5" y1="129.19" x2="-12.66" y2="248.87" gradientUnits="userSpaceOnUse"><stop offset="0.04" stop-color="#7430d7"/><stop offset="0.34" stop-color="#8328d1"/><stop offset="0.93" stop-color="#ac12c3"/><stop offset="0.98" stop-color="#b010c1"/></linearGradient><linearGradient id="linear-gradient-26" x1="601.33" y1="128.6" x2="-12.65" y2="248.25" gradientUnits="userSpaceOnUse"><stop offset="0.04" stop-color="#7937d8"/><stop offset="0.36" stop-color="#882ed2"/><stop offset="0.98" stop-color="#b118c2"/><stop offset="0.98" stop-color="#b118c2"/></linearGradient><linearGradient id="linear-gradient-27" x1="601.17" y1="128.02" x2="-12.64" y2="247.63" gradientUnits="userSpaceOnUse"><stop offset="0.04" stop-color="#7d3dd8"/><stop offset="0.37" stop-color="#8c35d2"/><stop offset="0.98" stop-color="#b320c4"/></linearGradient><linearGradient id="linear-gradient-28" x1="601.01" y1="127.43" x2="-12.63" y2="247.01" gradientUnits="userSpaceOnUse"><stop offset="0.04" stop-color="#8243d9"/><stop offset="0.39" stop-color="#913bd3"/><stop offset="0.98" stop-color="#b428c6"/></linearGradient><linearGradient id="linear-gradient-29" x1="600.85" y1="126.84" x2="-12.63" y2="246.39" gradientUnits="userSpaceOnUse"><stop offset="0.04" stop-color="#8649da"/><stop offset="0.4" stop-color="#9541d4"/><stop offset="0.98" stop-color="#b62fc8"/></linearGradient><linearGradient id="linear-gradient-30" x1="600.69" y1="126.25" x2="-12.63" y2="245.77" gradientUnits="userSpaceOnUse"><stop offset="0.04" stop-color="#8b4fda"/><stop offset="0.43" stop-color="#9a47d4"/><stop offset="0.98" stop-color="#b737ca"/></linearGradient><linearGradient id="linear-gradient-31" x1="600.54" y1="125.66" x2="-12.62" y2="245.15" gradientUnits="userSpaceOnUse"><stop offset="0.04" stop-color="#9056db"/><stop offset="0.46" stop-color="#9f4dd5"/><stop offset="0.98" stop-color="#b83fcb"/></linearGradient><linearGradient id="linear-gradient-32" x1="600.4" y1="125.07" x2="-12.62" y2="244.53" gradientUnits="userSpaceOnUse"><stop offset="0.04" stop-color="#945cdc"/><stop offset="0.48" stop-color="#a353d6"/><stop offset="0.98" stop-color="#ba47cd"/></linearGradient><linearGradient id="linear-gradient-33" x1="600.26" y1="124.48" x2="-12.62" y2="243.91" gradientUnits="userSpaceOnUse"><stop offset="0.04" stop-color="#9962dc"/><stop offset="0.52" stop-color="#a859d6"/><stop offset="0.98" stop-color="#bb4fcf"/></linearGradient><linearGradient id="linear-gradient-34" x1="600.14" y1="123.88" x2="-12.62" y2="243.29" gradientUnits="userSpaceOnUse"><stop offset="0.04" stop-color="#9d68dd"/><stop offset="0.55" stop-color="#ac60d7"/><stop offset="0.98" stop-color="#bd57d1"/></linearGradient><linearGradient id="linear-gradient-35" x1="600.02" y1="123.29" x2="-12.62" y2="242.67" gradientUnits="userSpaceOnUse"><stop offset="0.04" stop-color="#a26edd"/><stop offset="0.61" stop-color="#b166d8"/><stop offset="0.98" stop-color="#be5fd3"/></linearGradient><linearGradient id="linear-gradient-36" x1="599.91" y1="122.69" x2="-12.62" y2="242.06" gradientUnits="userSpaceOnUse"><stop offset="0.04" stop-color="#a674de"/><stop offset="0.65" stop-color="#b56cd9"/><stop offset="0.98" stop-color="#c067d5"/></linearGradient><linearGradient id="linear-gradient-37" x1="599.82" y1="122.09" x2="-12.63" y2="241.44" gradientUnits="userSpaceOnUse"><stop offset="0.04" stop-color="#ab7bdf"/><stop offset="0.74" stop-color="#ba73d9"/><stop offset="0.98" stop-color="#c16fd6"/></linearGradient><linearGradient id="linear-gradient-38" x1="599.74" y1="121.48" x2="-12.63" y2="240.82" gradientUnits="userSpaceOnUse"><stop offset="0.04" stop-color="#b081df"/><stop offset="0.87" stop-color="#bf78d9"/><stop offset="0.98" stop-color="#c277d8"/></linearGradient><linearGradient id="linear-gradient-39" x1="599.68" y1="120.87" x2="-12.63" y2="240.2" gradientUnits="userSpaceOnUse"><stop offset="0.04" stop-color="#b487e0"/><stop offset="0.95" stop-color="#c37eda"/><stop offset="0.98" stop-color="#c47eda"/></linearGradient><linearGradient id="linear-gradient-40" x1="599.62" y1="120.27" x2="-12.64" y2="239.58" gradientUnits="userSpaceOnUse"><stop offset="0.04" stop-color="#b98de1"/><stop offset="0.98" stop-color="#c586dc"/></linearGradient><linearGradient id="linear-gradient-41" x1="599.58" y1="119.66" x2="-12.64" y2="238.96" gradientUnits="userSpaceOnUse"><stop offset="0.04" stop-color="#bd93e1"/><stop offset="0.98" stop-color="#c78ede"/></linearGradient><linearGradient id="linear-gradient-42" x1="599.55" y1="119.04" x2="-12.65" y2="238.34" gradientUnits="userSpaceOnUse"><stop offset="0.04" stop-color="#c29ae2"/><stop offset="0.98" stop-color="#c896df"/></linearGradient><linearGradient id="linear-gradient-43" x1="599.52" y1="118.43" x2="-12.65" y2="237.73" gradientUnits="userSpaceOnUse"><stop offset="0.04" stop-color="#c6a0e2"/><stop offset="0.98" stop-color="#ca9ee1"/></linearGradient><linearGradient id="linear-gradient-44" x1="529.98" y1="188.06" x2="522.28" y2="171.12" xlink:href="#linear-gradient"/><linearGradient id="linear-gradient-45" x1="9471.39" y1="-817.98" x2="9458.26" y2="-793.5" gradientTransform="matrix(-0.87, 0.5, -0.5, 1.44, 8315.61, -3265.85)" xlink:href="#linear-gradient-38"/><linearGradient id="linear-gradient-46" x1="500.08" y1="213.5" x2="489.04" y2="186.3" xlink:href="#linear-gradient"/><linearGradient id="linear-gradient-47" x1="9500.29" y1="-802.48" x2="9487.16" y2="-778" gradientTransform="matrix(-0.87, 0.5, -0.5, 1.44, 8315.61, -3265.85)" xlink:href="#linear-gradient-38"/><linearGradient id="linear-gradient-48" x1="398.91" y1="21.4" x2="111.16" y2="472.56" gradientUnits="userSpaceOnUse"><stop offset="0" stop-color="#fff"/><stop offset="1" stop-color="#e5d4ef"/></linearGradient><linearGradient id="linear-gradient-49" x1="341.57" y1="109.97" x2="478.41" y2="109.97" xlink:href="#linear-gradient"/></defs><g class="cls-1"><g id="Layer_1" data-name="Layer 1"><g class="cls-2"><path class="cls-3" d="M202.82,425.15c10.29,0,19.63-2.25,27-6.51L606.17,202c9.85-5.69,15.5-14.69,15.5-24.69,0-11-6.81-21.18-18.67-28L440.67,55.59a66.46,66.46,0,0,0-32.8-8.34c-10.29,0-19.63,2.25-27,6.51L4.52,270.38C-5.33,276.07-11,285.06-11,295.07c0,11,6.81,21.17,18.67,28L170,416.81A66.46,66.46,0,0,0,202.82,425.15Z"/><path class="cls-4" d="M381.16,54.41,4.82,271c-9.46,5.46-14.82,14-14.77,23.55C-9.91,305-3.39,314.69,8,321.26l155,89.49c.25.15,7.85,4.5,8.15,4.58a64.61,64.61,0,0,0,33,7.4,57.91,57.91,0,0,0,26.64-7.12L605,200.19c9.46-5.46,14.82-14.05,14.77-23.55,0-10.39-6.56-20.11-17.94-26.68L440.52,56.8a67.28,67.28,0,0,0-12-5.33A69.56,69.56,0,0,0,408,48.12C397.83,48,388.47,50.19,381.16,54.41Z"/><path class="cls-5" d="M381.46,55.06,5.12,271.68c-9.07,5.24-14.14,13.4-14,22.41.09,9.82,6.32,19.05,17.22,25.34L164,409.34c.5.29,7.65,4.34,8.23,4.51a62.87,62.87,0,0,0,33.22,6.46c8.42,0,20.22-4.24,26.26-7.72L603.91,198.36C613,193.12,618.06,185,618,175.94c-.09-9.81-6.31-19-17.22-25.33L440.36,58a77.56,77.56,0,0,0-11.86-5.42A69.53,69.53,0,0,0,408.2,49C398.08,48.8,388.71,50.88,381.46,55.06Z"/><path class="cls-6" d="M381.77,55.7,5.43,272.32c-8.69,5-13.47,12.77-13.34,21.28.14,9.25,6.08,18,16.5,24l156.47,90.34c.75.43,7.44,4.17,8.31,4.43a60.91,60.91,0,0,0,33.43,5.51c7.48,0,20.51-5.22,25.88-8.32l370.1-213c8.69-5,13.47-12.77,13.33-21.28-.14-9.24-6.07-18-16.49-24l-159.42-92a88.77,88.77,0,0,0-11.73-5.5,68.84,68.84,0,0,0-20.1-3.85C398.33,49.57,388.94,51.56,381.77,55.7Z"/><path class="cls-7" d="M382.07,56.35,5.73,273c-8.3,4.8-12.8,12.13-12.61,20.15C-6.7,301.78-1,310,8.89,315.77l157.2,90.76c1,.58,7.24,4,8.4,4.36a59,59,0,0,0,33.63,4.57c6.55,0,20.81-6.21,25.5-8.93l368-211.83c8.3-4.79,12.8-12.13,12.61-20.15-.18-8.67-5.83-16.91-15.77-22.65L440.05,60.43a106.11,106.11,0,0,0-11.6-5.59,69.29,69.29,0,0,0-19.92-4.1C398.58,50.35,389.17,52.25,382.07,56.35Z"/><path class="cls-8" d="M382.37,57,6,273.62c-7.91,4.57-12.12,11.49-11.89,19,.23,8.09,5.59,15.84,15.05,21.31l157.94,91.18a88.57,88.57,0,0,0,8.48,4.29c10.53,4.62,23.33,6,33.84,3.63,5.61,0,21.1-7.21,25.12-9.53l366-210.64c7.91-4.57,12.12-11.49,11.89-19-.23-8.1-5.59-15.85-15-21.31L439.89,61.64A127.34,127.34,0,0,0,428.42,56a68.27,68.27,0,0,0-19.72-4.35C398.83,51.12,389.4,52.94,382.37,57Z"/><path class="cls-9" d="M382.67,57.65,6.33,274.27c-7.52,4.34-11.44,10.84-11.17,17.87.28,7.52,5.35,14.78,14.34,20l158.66,91.61a74.85,74.85,0,0,0,8.57,4.21c10.77,4.46,23.8,5.5,34.05,2.69,4.67,0,21.39-8.2,24.74-10.14L599.39,191c7.53-4.35,11.45-10.85,11.17-17.88-.28-7.52-5.35-14.77-14.33-20L439.74,62.85c-1.69-1-9.43-5-11.35-5.76a68,68,0,0,0-19.52-4.6C399.08,51.9,389.64,53.63,382.67,57.65Z"/><path class="cls-10" d="M383,58.3,6.63,274.92C-.5,279-4.13,285.12-3.81,291.66c.32,6.94,5.1,13.71,13.61,18.62l159.4,92a64.35,64.35,0,0,0,8.65,4.14c11,4.31,24.27,5,34.25,1.74,3.74,0,21.69-9.19,24.37-10.74L598.26,189.21c7.14-4.12,10.77-10.21,10.45-16.74-.33-6.95-5.11-13.71-13.61-18.62L439.58,64.06c-1.35-.78-9.69-5.25-11.22-5.84A67.32,67.32,0,0,0,409,53.37C399.33,52.67,389.87,54.32,383,58.3Z"/><path class="cls-11" d="M383.28,59,6.94,275.57c-6.75,3.89-10.1,9.56-9.73,15.6.37,6.37,4.86,12.64,12.89,17.28L170.23,400.9A57.67,57.67,0,0,0,179,405c11.26,4.16,24.74,4.55,34.46.8,2.8,0,22-10.18,24-11.34l359.71-207c6.75-3.9,10.1-9.57,9.73-15.61-.37-6.37-4.86-12.64-12.89-17.27L439.42,65.27c-1-.59-9.94-5.47-11.09-5.93C422.43,57,416,54.8,409.2,54.24,399.57,53.44,390.1,55,383.28,59Z"/><path class="cls-12" d="M383.58,59.6,7.24,276.22c-6.36,3.67-9.42,8.92-9,14.46.42,5.8,4.62,11.58,12.17,15.94l160.87,92.87a51.41,51.41,0,0,0,8.81,4c11.51,4,25.22,4.07,34.67-.14,1.87,0,22.28-11.18,23.62-12L596,185.55c6.37-3.68,9.42-8.93,9-14.47-.42-5.8-4.62-11.58-12.17-15.94L439.27,66.48c-.68-.39-10.2-5.7-11-6-5.84-2.41-12.24-4.72-18.95-5.35C399.82,54.22,390.34,55.69,383.58,59.6Z"/><path class="cls-13" d="M383.88,60.24,7.54,276.86c-6,3.45-8.74,8.29-8.28,13.34.46,5.22,4.37,10.5,11.44,14.59l161.6,93.3a47.56,47.56,0,0,0,8.9,3.92c11.75,3.85,25.7,3.6,34.88-1.08.94,0,22.57-12.17,23.24-12.56L594.87,183.71c6-3.45,8.74-8.28,8.29-13.33-.47-5.22-4.38-10.51-11.45-14.59l-152.6-88.1c-.34-.2-10.45-5.94-10.83-6.1-5.78-2.45-12.09-4.9-18.75-5.6C400.07,55,390.57,56.38,383.88,60.24Z"/><path d="M217.41,398.5,593.74,181.88c11.3-6.52,9.88-17.91-3.16-25.44L428.25,62.72c-13-7.53-32.77-8.35-44.07-1.83L7.84,277.51C-3.45,284-2,295.42,11,303l162.33,93.72C186.38,404.21,206.11,405,217.41,398.5Z"/></g><path class="cls-14" d="M164.09,361.85,12.32,274.23C4.67,269.81.87,263.92.77,257.74c0-.54,0-5.26.06-5.81.63-7.15,6.13-3.21,16.29-9.08L374,36.82c19.76-11.42,49.67-12.66,66.78-2.77l151.77,87.62c7.64,4.41,11.45-3.35,11.56,2.82,0,.54,0,7.55-.06,8.09-.61,7.17-6.12,14.59-16.29,20.46l-356.87,206C211.11,370.5,181.21,371.73,164.09,361.85Z"/><path class="cls-15" d="M374,36.2c19.76-11.42,49.67-12.65,66.78-2.77l151.77,87.62c7.51,4.34,11.05-2.89,11.48,3.16,0,.63.07,7.43,0,8.07-.6,7.18-6.11,14.61-16.29,20.49l-356.87,206c-19.77,11.41-49.67,12.65-66.79,2.76L12.32,274C4.65,269.52.82,263.61.77,257.4c0-.61,0-5.19.13-5.81.85-7.06,6.19-3.56,16.22-9.35Z"/><path class="cls-16" d="M374,35.58c19.76-11.41,49.67-12.65,66.78-2.77l151.77,87.62c7.37,4.26,10.74-2.42,11.4,3.49.08.73.16,7.32.1,8.06-.57,7.19-6.1,14.63-16.29,20.51l-356.87,206c-19.77,11.41-49.67,12.65-66.79,2.77L12.32,273.67C4.62,269.23.78,263.29.77,257.06c0-.68.09-5.13.2-5.82,1-7,6.24-3.91,16.15-9.62Z"/><path class="cls-17" d="M374,35c19.76-11.41,49.67-12.65,66.78-2.77l151.77,87.62c7.24,4.18,10.49-2,11.32,3.82.12.83.25,7.21.18,8.06-.56,7.19-6.09,14.63-16.29,20.52l-356.87,206c-19.77,11.41-49.67,12.65-66.79,2.77L12.32,273.4C4.6,268.94.74,263,.77,256.72c0-.74.13-5.06.27-5.82,1.18-6.85,6.3-4.26,16.08-9.9Z"/><path class="cls-18" d="M374,34.34c19.76-11.41,49.67-12.65,66.78-2.77l151.77,87.62c7.1,4.1,10.27-1.48,11.24,4.15.16.94.34,7.1.27,8-.55,7.2-6.09,14.65-16.3,20.55L230.88,358c-19.77,11.42-49.67,12.66-66.79,2.77L12.32,273.12C4.57,268.65.71,262.66.77,256.39c0-.82.17-5,.34-5.84,1.3-6.74,6.35-4.6,16-10.17Z"/><path class="cls-19" d="M374,33.72c19.76-11.41,49.67-12.65,66.78-2.77l151.77,87.62c7,4,10.08-1,11.16,4.48a77.18,77.18,0,0,1,.35,8c-.54,7.2-6.09,14.66-16.3,20.56l-356.87,206c-19.77,11.41-49.67,12.65-66.79,2.77L12.32,272.84C4.55,268.35.68,262.34.77,256.05c0-.89.21-4.94.41-5.84,1.41-6.65,6.41-5,15.94-10.45Z"/><path class="cls-20" d="M374,33.1c19.76-11.41,49.67-12.65,66.78-2.77L592.54,118c6.83,4,9.91-.55,11.08,4.81a65.43,65.43,0,0,1,.43,8c-.53,7.21-6.08,14.68-16.3,20.58l-356.87,206c-19.77,11.41-49.67,12.65-66.79,2.77L12.32,272.57C4.52,268.06.65,262,.78,255.71a55.1,55.1,0,0,1,.47-5.85c1.51-6.55,6.46-5.29,15.87-10.72Z"/><path class="cls-21" d="M374,32.48c19.76-11.41,49.67-12.65,66.78-2.77l151.77,87.63c6.7,3.86,9.76-.1,11,5.13a55.34,55.34,0,0,1,.51,8c-.52,7.22-6.07,14.69-16.3,20.61l-356.87,206c-19.77,11.42-49.67,12.66-66.79,2.77L12.32,272.29C4.49,267.77.62,261.71.78,255.37a48.56,48.56,0,0,1,.54-5.85c1.59-6.46,6.52-5.64,15.8-11Z"/><path class="cls-22" d="M374,31.86c19.76-11.41,49.67-12.65,66.78-2.77l151.77,87.63c6.56,3.78,9.61.36,10.92,5.46a48,48,0,0,1,.59,8c-.51,7.22-6.06,14.7-16.3,20.62l-356.87,206c-19.77,11.41-49.67,12.65-66.79,2.76L12.32,272C4.47,267.48.6,261.39.78,255a43.47,43.47,0,0,1,.61-5.86c1.67-6.36,6.58-6,15.73-11.27Z"/><path class="cls-23" d="M374,31.24c19.76-11.41,49.67-12.65,66.78-2.77L592.54,116.1c6.42,3.71,9.48.82,10.84,5.79a42.44,42.44,0,0,1,.67,8c-.5,7.23-6,14.72-16.3,20.64l-356.87,206c-19.77,11.41-49.67,12.65-66.79,2.77L12.32,271.74C4.44,267.19.57,261.07.78,254.69a40.65,40.65,0,0,1,.68-5.86c1.74-6.27,6.63-6.34,15.66-11.55Z"/><path class="cls-24" d="M374,30.62c19.76-11.41,49.67-12.65,66.78-2.76l151.77,87.62c6.29,3.63,9.35,1.27,10.76,6.12a38.67,38.67,0,0,1,.75,8c-.49,7.24-6,14.74-16.3,20.66l-356.87,206c-19.77,11.42-49.67,12.65-66.79,2.77L12.32,271.46C4.42,266.9.55,260.76.78,254.35a37.28,37.28,0,0,1,.75-5.87c1.8-6.18,6.69-6.68,15.59-11.82Z"/><path class="cls-25" d="M374,30c19.76-11.42,49.67-12.66,66.78-2.77l151.77,87.62c6.15,3.55,9.22,1.73,10.68,6.45a35,35,0,0,1,.84,8c-.5,7.23-6,14.75-16.31,20.68L230.88,356c-19.77,11.41-49.67,12.65-66.79,2.76L12.32,271.18C4.39,266.6.53,260.44.78,254a33.29,33.29,0,0,1,.82-5.87c1.86-6.1,6.74-7,15.52-12.1Z"/><path class="cls-26" d="M374,29.39c19.76-11.42,49.67-12.66,66.78-2.77l151.77,87.62c6,3.47,9.1,2.18,10.6,6.78a31.45,31.45,0,0,1,.92,8c-.49,7.24-6,14.76-16.31,20.7l-356.87,206c-19.77,11.41-49.67,12.65-66.79,2.77L12.32,270.9C4.37,266.31.51,260.12.79,253.67a30.19,30.19,0,0,1,.88-5.88c1.92-6,6.8-7.37,15.45-12.37Z"/><path class="cls-27" d="M374,28.77c19.76-11.42,49.67-12.66,66.78-2.77l151.77,87.62c5.88,3.4,9,2.62,10.52,7.12a28.5,28.5,0,0,1,1,8c-.48,7.25-6,14.78-16.31,20.72l-356.87,206c-19.77,11.41-49.67,12.65-66.79,2.77L12.32,270.63C4.34,266,.49,259.81.79,253.33a28.25,28.25,0,0,1,1-5.88c2-5.93,6.85-7.72,15.38-12.65Z"/><path class="cls-28" d="M374,28.15c19.76-11.42,49.67-12.66,66.78-2.77L592.54,113c5.75,3.32,8.86,3.07,10.44,7.45a26.18,26.18,0,0,1,1.08,8c-.47,7.25-6,14.79-16.31,20.74l-356.87,206c-19.77,11.42-49.67,12.66-66.79,2.77L12.32,270.35C4.32,265.73.48,259.49.79,253a26.74,26.74,0,0,1,1-5.9c2-5.84,6.91-8.07,15.31-12.91Z"/><path class="cls-29" d="M374,27.53c19.76-11.41,49.67-12.65,66.78-2.77l151.77,87.62c5.61,3.24,8.75,3.51,10.37,7.78a24.16,24.16,0,0,1,1.15,8c-.47,7.26-6,14.81-16.31,20.76l-356.87,206c-19.77,11.41-49.67,12.65-66.79,2.77L12.32,270.07c-8-4.63-11.86-10.9-11.53-17.41a25.18,25.18,0,0,1,1.09-5.9c2.07-5.76,7-8.42,15.24-13.19Z"/><path class="cls-30" d="M374,26.91c19.76-11.41,49.67-12.65,66.78-2.77l151.77,87.62c5.48,3.16,8.64,4,10.29,8.11a22.23,22.23,0,0,1,1.23,8c-.46,7.27-6,14.82-16.31,20.78l-356.87,206c-19.77,11.41-49.67,12.65-66.79,2.77L12.32,269.8C4.27,265.15.44,258.86.79,252.32A23.6,23.6,0,0,1,2,246.41c2.11-5.68,7-8.76,15.17-13.46Z"/><path class="cls-31" d="M374,26.29c19.76-11.41,49.67-12.65,66.78-2.77l151.77,87.62c5.34,3.09,8.52,4.39,10.21,8.44a20.59,20.59,0,0,1,1.31,8c-.47,7.27-6,14.83-16.31,20.8l-356.87,206c-19.77,11.42-49.67,12.66-66.79,2.77L12.32,269.52C4.24,264.85.42,258.54.79,252A22,22,0,0,1,2,246.07c2.16-5.61,7.08-9.11,15.1-13.74Z"/><path class="cls-32" d="M374,25.67C393.75,14.26,423.66,13,440.77,22.9l151.77,87.62c5.2,3,8.41,4.83,10.13,8.77a19.37,19.37,0,0,1,1.4,7.95c-.47,7.28-6,14.85-16.32,20.82l-356.87,206c-19.77,11.41-49.67,12.65-66.79,2.76L12.32,269.24c-8.11-4.68-11.91-11-11.53-17.6a21.15,21.15,0,0,1,1.3-5.92c2.2-5.52,7.13-9.45,15-14Z"/><path class="cls-33" d="M374,25.05c19.76-11.41,49.67-12.65,66.78-2.77L592.54,109.9c5.07,2.93,8.3,5.26,10.05,9.1a17.86,17.86,0,0,1,1.48,8c-.46,7.28-6,14.86-16.32,20.83l-356.87,206c-19.77,11.41-49.67,12.65-66.79,2.77L12.32,269C4.19,264.27.39,257.91.8,251.3a19.66,19.66,0,0,1,1.36-5.92c2.24-5.46,7.19-9.8,15-14.29Z"/><path class="cls-34" d="M374,24.43c19.76-11.41,49.67-12.65,66.78-2.77l151.77,87.63c4.93,2.84,8.19,5.69,10,9.42a16.59,16.59,0,0,1,1.56,7.94c-.45,7.29-6,14.87-16.32,20.85l-356.87,206c-19.77,11.42-49.67,12.65-66.79,2.77L12.32,268.69C4.16,264,.38,257.59.8,251A18.41,18.41,0,0,1,2.23,245c2.29-5.38,7.24-10.15,14.89-14.56Z"/><path class="cls-35" d="M164.09,356,12.32,268.41c-17.12-9.88-15-27.15,4.8-38.56L374,23.81C393.75,12.4,423.66,11.16,440.77,21l151.77,87.63c17.12,9.88,15,27.14-4.79,38.56l-356.87,206C211.11,364.68,181.21,365.92,164.09,356Z"/><path class="cls-36" d="M164.09,356.2,12.32,268.58C4.67,264.17.87,258.28.77,252.09c0-.54,0-12.44.06-13,.63-7.16,6.13-3.22,16.29-9.08L374,24c19.76-11.41,49.67-12.65,66.78-2.77l151.77,87.63c7.64,4.41,11.45-3.36,11.56,2.82,0,.54,0,14.73-.06,15.27-.61,7.17-6.12,14.59-16.29,20.47l-356.87,206C211.11,364.85,181.21,366.09,164.09,356.2Z"/><path class="cls-37" d="M374,23.36c19.76-11.41,49.67-12.65,66.78-2.77l151.77,87.63c7.48,4.31,10.79-2.92,11.44,3.08.07.71.12,14.43,0,15.16-.83,7.1-6.16,14.48-16.26,20.32l-356.87,206c-19.77,11.41-49.67,12.65-66.79,2.76L12.32,268C4.71,263.57,1,257.71.77,251.55c0-.69.07-12.21.19-12.92,1.12-7,6.18-3.47,16.16-9.23Z"/><path class="cls-38" d="M374,22.74c19.76-11.41,49.67-12.65,66.78-2.76L592.54,107.6c7.31,4.22,10.36-2.47,11.31,3.33.15.9.26,14.13.14,15-1,7-6.21,14.38-16.24,20.18l-356.87,206c-19.77,11.41-49.67,12.65-66.79,2.77L12.32,267.34C4.74,263,1.05,257.13.78,251c0-.85.13-12,.31-12.84,1.43-6.8,6.24-3.74,16-9.39Z"/><path class="cls-39" d="M374,22.13c19.76-11.42,49.67-12.66,66.78-2.77L592.54,107c7.14,4.12,10-2,11.19,3.59.23,1.08.4,13.83.23,14.94-1.07,7-6.25,14.28-16.21,20l-356.87,206c-19.77,11.41-49.67,12.65-66.79,2.77L12.32,266.72C4.77,262.36,1.11,256.56.78,250.47c-.05-1,.19-11.73.45-12.77,1.63-6.63,6.28-4,15.89-9.54Z"/><path class="cls-40" d="M374,21.51c19.76-11.42,49.67-12.66,66.78-2.77l151.77,87.62c7,4,9.78-1.6,11.07,3.85a140.94,140.94,0,0,1,.32,14.83c-1.14,6.93-6.29,14.17-16.18,19.88L230.88,351c-19.77,11.41-49.67,12.65-66.79,2.77L12.32,266.1C4.8,261.76,1.15,256,.79,249.93c-.07-1.16.23-11.48.57-12.7,1.79-6.47,6.33-4.25,15.76-9.69Z"/><path class="cls-41" d="M374,20.89c19.76-11.42,49.67-12.66,66.78-2.77l151.77,87.62c6.8,3.93,9.55-1.17,11,4.11.39,1.45.68,13.23.42,14.71-1.21,6.89-6.34,14.07-16.16,19.74l-356.87,206c-19.77,11.41-49.67,12.65-66.79,2.77L12.32,265.49C4.84,261.16,1.19,255.42.79,249.39c-.08-1.31.29-11.24.7-12.62,1.91-6.32,6.39-4.51,15.63-9.85Z"/><path class="cls-42" d="M374,20.27c19.76-11.42,49.67-12.66,66.78-2.77l151.77,87.62c6.63,3.83,9.36-.75,10.83,4.36.47,1.64.82,12.93.51,14.61-1.25,6.84-6.37,14-16.13,19.59l-356.87,206c-19.77,11.41-49.67,12.65-66.79,2.77L12.32,264.87c-7.45-4.31-11.09-10-11.52-16-.1-1.46.33-11,.83-12.55,2-6.17,6.43-4.77,15.49-10Z"/><path class="cls-43" d="M374,19.65C393.75,8.24,423.66,7,440.77,16.88L592.54,104.5c6.47,3.73,9.18-.33,10.71,4.62.56,1.82,1,12.63.6,14.5-1.29,6.79-6.41,13.85-16.1,19.44l-356.87,206c-19.77,11.41-49.67,12.65-66.79,2.77L12.32,264.25C4.9,260,1.26,254.28.81,248.31c-.13-1.62.36-10.76,1-12.48,2.07-6,6.48-5,15.36-10.14Z"/><path class="cls-44" d="M374,19c19.76-11.41,49.67-12.65,66.78-2.77l151.77,87.62c6.3,3.64,9,.09,10.59,4.88.66,2,1.11,12.33.7,14.38-1.34,6.74-6.46,13.75-16.08,19.3l-356.87,206c-19.77,11.41-49.67,12.65-66.79,2.77L12.32,263.63c-7.39-4.27-11-9.92-11.51-15.86-.14-1.77.4-10.53,1.08-12.4,2.14-5.9,6.54-5.29,15.23-10.3Z"/><path class="cls-45" d="M374,18.41C393.75,7,423.66,5.76,440.77,15.64l151.77,87.62c6.13,3.54,8.85.5,10.47,5.14.76,2.18,1.25,12,.79,14.27-1.37,6.69-6.5,13.64-16,19.15l-356.87,206c-19.77,11.42-49.67,12.65-66.79,2.77L12.32,263c-7.35-4.25-11-9.87-11.5-15.78C.65,245.3,1.25,236.94,2,234.9c2.19-5.76,6.58-5.54,15.09-10.45Z"/><path class="cls-46" d="M374,17.79C393.75,6.38,423.66,5.14,440.77,15l151.77,87.62c6,3.45,8.69.91,10.35,5.39.87,2.36,1.4,11.74.88,14.17-1.41,6.65-6.54,13.53-16,19l-356.87,206c-19.77,11.42-49.67,12.66-66.79,2.77L12.32,262.39c-7.32-4.23-11-9.82-11.5-15.7-.18-2.08.46-10.06,1.34-12.26,2.24-5.63,6.63-5.8,15-10.6Z"/><path class="cls-47" d="M374,17.17c19.76-11.41,49.67-12.65,66.78-2.77L592.54,102c5.79,3.35,8.54,1.31,10.23,5.65,1,2.53,1.55,11.44,1,14-1.44,6.61-6.59,13.43-16,18.87l-356.87,206c-19.77,11.42-49.67,12.66-66.79,2.77L12.32,261.77C5,257.56,1.36,252,.83,246.15c-.21-2.23.48-9.82,1.46-12.18,2.29-5.51,6.69-6.06,14.83-10.76Z"/><path class="cls-48" d="M374,16.55c19.76-11.41,49.67-12.65,66.78-2.77l151.77,87.63c5.63,3.24,8.4,1.7,10.11,5.9,1.1,2.7,1.7,11.14,1.07,13.94-1.47,6.56-6.63,13.32-16,18.72L230.88,346c-19.77,11.42-49.67,12.66-66.79,2.77L12.32,261.15C5.06,257,1.39,251.43.83,245.61c-.22-2.39.51-9.59,1.6-12.11,2.33-5.38,6.73-6.32,14.69-10.91Z"/><path class="cls-49" d="M374,15.93c19.76-11.41,49.67-12.65,66.78-2.77l151.77,87.63c5.46,3.15,8.25,2.1,10,6.16,1.23,2.87,1.85,10.84,1.17,13.83-1.51,6.51-6.68,13.21-16,18.57l-356.87,206c-19.77,11.41-49.67,12.65-66.79,2.76L12.32,260.53C5.1,256.36,1.41,250.86.84,245.07c-.25-2.54.52-9.37,1.72-12,2.37-5.26,6.78-6.57,14.56-11.06Z"/><path class="cls-50" d="M374,15.31c19.76-11.41,49.67-12.65,66.78-2.77l151.77,87.63c5.29,3,8.11,2.5,9.87,6.41,1.36,3,2,10.55,1.26,13.72-1.53,6.48-6.71,13.11-15.92,18.43l-356.87,206c-19.77,11.41-49.67,12.65-66.79,2.76L12.32,259.91C5.13,255.76,1.43,250.29.84,244.53c-.27-2.69.53-9.14,1.85-12,2.41-5.15,6.84-6.84,14.43-11.22Z"/><path class="cls-51" d="M374,14.69C393.75,3.28,423.66,2,440.77,11.93L592.54,99.55c5.12,3,8,2.89,9.75,6.67,1.5,3.2,2.17,10.25,1.35,13.61-1.56,6.43-6.75,13-15.89,18.28l-356.87,206c-19.77,11.41-49.67,12.65-66.79,2.77L12.32,259.29C5.16,255.16,1.46,249.73.85,244c-.3-2.85.53-8.92,2-11.89,2.44-5,6.88-7.09,14.29-11.37Z"/><path class="cls-52" d="M374,14.07c19.76-11.41,49.67-12.65,66.78-2.76L592.54,98.93c5,2.86,7.83,3.28,9.63,6.93a24.7,24.7,0,0,1,1.45,13.5c-1.59,6.38-6.8,12.89-15.87,18.13l-356.87,206c-19.77,11.41-49.67,12.65-66.79,2.77L12.32,258.67C5.19,254.56,1.48,249.16.86,243.45A26.3,26.3,0,0,1,3,231.63c2.48-4.91,6.93-7.35,14.16-11.52Z"/><path class="cls-53" d="M374,13.46C393.75,2,423.66.8,440.77,10.69L592.54,98.31c4.78,2.76,7.68,3.67,9.5,7.18a22.36,22.36,0,0,1,1.55,13.4c-1.61,6.34-6.84,12.78-15.84,18l-356.87,206c-19.77,11.41-49.67,12.65-66.79,2.77L12.32,258.05C5.23,254,1.5,248.59.86,242.91a24.21,24.21,0,0,1,2.23-11.74c2.52-4.81,7-7.61,14-11.68Z"/><path class="cls-54" d="M374,12.84C393.75,1.42,423.66.18,440.77,10.07L592.54,97.69c4.62,2.66,7.54,4,9.38,7.44a20.4,20.4,0,0,1,1.64,13.28c-1.64,6.3-6.88,12.68-15.81,17.84l-356.87,206c-19.77,11.41-49.67,12.65-66.79,2.77L12.32,257.44C5.26,253.36,1.52,248,.87,242.36A22.26,22.26,0,0,1,3.23,230.7c2.55-4.7,7-7.87,13.89-11.83Z"/><path class="cls-55" d="M374,12.22C393.75.8,423.66-.44,440.77,9.45L592.54,97.07c4.45,2.57,7.4,4.43,9.26,7.7a18.69,18.69,0,0,1,1.74,13.17c-1.67,6.26-6.93,12.57-15.79,17.69l-356.87,206c-19.77,11.41-49.67,12.65-66.79,2.77L12.32,256.82c-7-4.06-10.78-9.37-11.45-15a20.55,20.55,0,0,1,2.49-11.58c2.59-4.61,7.08-8.13,13.76-12Z"/><path class="cls-56" d="M374,11.6C393.75.19,423.66-1,440.77,8.83L592.54,96.45c4.28,2.47,7.26,4.8,9.14,8a17.14,17.14,0,0,1,1.83,13.06c-1.69,6.22-7,12.46-15.76,17.54l-356.87,206c-19.77,11.41-49.67,12.65-66.79,2.77L12.32,256.2c-7-4-10.76-9.32-11.44-14.92a19.06,19.06,0,0,1,2.61-11.51c2.63-4.5,7.13-8.39,13.63-12.13Z"/><path class="cls-57" d="M164.09,343.2,12.32,255.58c-17.12-9.89-15-27.15,4.8-38.56L374,11C393.75-.43,423.66-1.67,440.77,8.21L592.54,95.83c17.12,9.89,15,27.15-4.79,38.56l-356.87,206C211.11,351.84,181.21,353.08,164.09,343.2Z"/><path class="cls-57" d="M164.09,343.2,12.32,255.58c-17.12-9.89-15-27.15,4.8-38.56L374,11C393.75-.43,423.66-1.67,440.77,8.21L592.54,95.83c17.12,9.89,15,27.15-4.79,38.56l-356.87,206C211.11,351.84,181.21,353.08,164.09,343.2Z"/><path class="cls-58" d="M17.25,217,374,11.05C393.74-.34,423.57-1.58,440.65,8.28L592.36,95.87c17.08,9.86,14.93,27.09-4.79,38.47l-356.77,206c-19.72,11.39-49.55,12.63-66.63,2.77L12.46,255.5C-4.62,245.64-2.47,228.41,17.25,217Z"/><path class="cls-59" d="M17.38,217,374.06,11.11C393.73-.25,423.49-1.48,440.52,8.36L592.18,95.91c17,9.84,14.9,27-4.78,38.38L230.72,340.22c-19.67,11.36-49.43,12.59-66.46,2.75L12.6,255.42C-4.43,245.58-2.3,228.4,17.38,217Z"/><path class="cls-60" d="M17.5,217.05,374.09,11.18C393.72-.15,423.4-1.38,440.4,8.43L592,96c17,9.82,14.87,27-4.76,38.29L230.65,340.11c-19.63,11.33-49.32,12.56-66.31,2.75L12.74,255.34C-4.25,245.52-2.12,228.38,17.5,217.05Z"/><path class="cls-61" d="M17.63,217.07,374.13,11.24C393.7-.06,423.32-1.29,440.27,8.5L591.81,96c17,9.79,14.83,26.89-4.75,38.19L230.57,340c-19.58,11.31-49.19,12.54-66.15,2.75L12.88,255.26C-4.07,245.47-1.94,228.37,17.63,217.07Z"/><path class="cls-62" d="M17.76,217.08,374.16,11.31c19.53-11.27,49.07-12.5,66-2.73L591.63,96c16.91,9.77,14.79,26.83-4.74,38.1L230.49,339.9c-19.53,11.27-49.07,12.5-66,2.73L13,255.18C-3.89,245.41-1.77,228.35,17.76,217.08Z"/><path class="cls-63" d="M17.89,217.09,374.2,11.38C393.68.13,423.15-1.09,440,8.65L591.45,96.07c16.87,9.75,14.75,26.76-4.73,38L230.41,339.79c-19.48,11.25-48.95,12.47-65.82,2.73L13.17,255.09C-3.71,245.35-1.59,228.34,17.89,217.09Z"/><path class="cls-64" d="M18,217.1,374.23,11.44C393.67.22,423.07-1,439.9,8.72l151.36,87.4c16.83,9.71,14.72,26.68-4.71,37.91L230.34,339.68c-19.44,11.22-48.83,12.44-65.66,2.73L13.31,255C-3.52,245.3-1.41,228.32,18,217.1Z"/><path class="cls-65" d="M18.15,217.12,374.27,11.51C393.66.32,423-.9,439.77,8.8L591.08,96.16c16.79,9.69,14.69,26.62-4.7,37.81L230.26,339.58c-19.39,11.19-48.71,12.41-65.5,2.71L13.45,254.93C-3.34,245.24-1.24,228.31,18.15,217.12Z"/><path class="cls-66" d="M18.28,217.13l356-205.55C393.64.41,422.9-.8,439.65,8.87L590.9,96.2c16.75,9.67,14.65,26.55-4.69,37.72l-356,205.55c-19.34,11.17-48.59,12.38-65.34,2.71L13.59,254.85C-3.16,245.18-1.06,228.29,18.28,217.13Z"/><path class="cls-67" d="M18.41,217.14,374.34,11.64C393.63.51,422.81-.7,439.52,8.94l151.2,87.3c16.7,9.64,14.61,26.49-4.68,37.63L230.11,339.36c-19.3,11.14-48.48,12.35-65.18,2.71l-151.2-87.3C-3,245.13-.88,228.28,18.41,217.14Z"/><path class="cls-68" d="M18.54,217.15,374.38,11.71C393.62.6,422.73-.61,439.39,9L590.54,96.28c16.66,9.62,14.57,26.42-4.67,37.53L230,339.26c-19.24,11.11-48.35,12.31-65,2.69L13.87,254.69C-2.79,245.07-.7,228.26,18.54,217.15Z"/><path class="cls-69" d="M18.67,217.17,374.41,11.78C393.61.69,422.65-.51,439.27,9.09L590.35,96.32c16.63,9.59,14.54,26.36-4.65,37.44L230,339.15c-19.19,11.08-48.23,12.29-64.86,2.69L14,254.61C-2.61,245-.53,228.25,18.67,217.17Z"/><path class="cls-70" d="M18.8,217.18,374.45,11.84C393.6.79,422.56-.41,439.14,9.16l151,87.2c16.58,9.57,14.5,26.29-4.64,37.35L229.87,339c-19.14,11.06-48.11,12.26-64.69,2.69l-151-87.2C-2.43,245-.35,228.23,18.8,217.18Z"/><path class="cls-71" d="M18.93,217.19,374.48,11.91c19.1-11,48-12.23,64.54-2.67L590,96.4c16.54,9.55,14.46,26.23-4.64,37.26L229.8,338.94c-19.1,11-48,12.22-64.54,2.67l-151-87.16C-2.25,244.9-.17,228.22,18.93,217.19Z"/><path class="cls-72" d="M19.05,217.2,374.52,12c19.05-11,47.87-12.2,64.37-2.67L589.81,96.44c16.5,9.52,14.43,26.16-4.63,37.16L229.72,338.83c-19.05,11-47.87,12.2-64.37,2.67L14.43,254.37C-2.07,244.84,0,228.2,19.05,217.2Z"/><path class="cls-73" d="M19.18,217.22,374.56,12c19-11,47.75-12.16,64.21-2.66l150.85,87.1c16.46,9.5,14.4,26.1-4.61,37.07L229.64,338.72c-19,11-47.75,12.17-64.21,2.67L14.57,254.29C-1.88,244.79.18,228.19,19.18,217.22Z"/><path class="cls-74" d="M19.31,217.23,374.59,12.11c19-10.95,47.63-12.13,64.05-2.66l150.8,87.07c16.42,9.48,14.36,26-4.6,37L229.56,338.62c-18.95,10.94-47.63,12.13-64.05,2.65L14.71,254.21C-1.7,244.73.36,228.17,19.31,217.23Z"/><path class="cls-75" d="M19.44,217.24,374.63,12.18C393.54,1.26,422.14.07,438.52,9.53l150.74,87c16.37,9.45,14.32,26-4.59,36.89L229.49,338.51c-18.91,10.92-47.52,12.1-63.89,2.65l-150.74-87C-1.52,244.67.53,228.16,19.44,217.24Z"/><path class="cls-76" d="M19.57,217.25l355.09-205C393.52,1.35,422.06.17,438.39,9.6l150.69,87c16.33,9.43,14.28,25.9-4.58,36.79l-355.09,205c-18.86,10.89-47.39,12.08-63.73,2.65L15,254.05C-1.34,244.62.71,228.14,19.57,217.25Z"/><path class="cls-77" d="M19.7,217.27l355-205C393.51,1.45,422,.27,438.26,9.67l150.63,87c16.3,9.41,14.25,25.84-4.56,36.7l-355,205c-18.81,10.86-47.27,12-63.56,2.63L15.14,254C-1.16,244.56.89,228.13,19.7,217.27Z"/><path class="cls-78" d="M19.83,217.28l354.9-204.9c18.77-10.84,47.16-12,63.41-2.63L588.71,96.68c16.25,9.38,14.22,25.77-4.55,36.61l-354.9,204.9c-18.77,10.84-47.16,12-63.41,2.63L15.28,253.89C-1,244.5,1.06,228.11,19.83,217.28Z"/><path class="cls-79" d="M20,217.29,374.77,12.44c18.72-10.8,47-12,63.24-2.62l150.52,86.9c16.21,9.36,14.18,25.71-4.54,36.52L229.18,338.08c-18.72,10.81-47,12-63.25,2.63L15.42,253.81C-.79,244.45,1.24,228.1,20,217.29Z"/><path class="cls-80" d="M20.09,217.3,374.8,12.51C393.48,1.73,421.72.56,437.89,9.89L588.35,96.76c16.17,9.34,14.14,25.64-4.53,36.42L229.1,338c-18.67,10.78-46.91,11.95-63.08,2.61L15.56,253.73C-.61,244.39,1.42,228.08,20.09,217.3Z"/><path class="cls-81" d="M20.22,217.32,374.84,12.58C393.46,1.82,421.63.66,437.76,10L588.16,96.8c16.13,9.31,14.11,25.58-4.51,36.33L229,337.87c-18.62,10.75-46.79,11.92-62.92,2.61L15.7,253.65C-.43,244.33,1.59,228.07,20.22,217.32Z"/><path class="cls-82" d="M20.35,217.33,374.88,12.64C393.45,1.92,421.55.75,437.64,10L588,96.84c16.09,9.29,14.07,25.51-4.5,36.24L229,337.76c-18.58,10.73-46.68,11.89-62.76,2.61L15.84,253.56C-.25,244.28,1.77,228.05,20.35,217.33Z"/><path class="cls-83" d="M20.48,217.34,374.91,12.71C393.44,2,421.47.85,437.51,10.11L587.8,96.88c16.05,9.27,14,25.45-4.49,36.14L228.87,337.66c-18.53,10.69-46.56,11.86-62.6,2.59L16,253.48C-.06,244.22,2,228,20.48,217.34Z"/><path class="cls-84" d="M20.61,217.35,375,12.77C393.43,2.11,421.38,1,437.39,10.19L587.62,96.92c16,9.24,14,25.38-4.49,36.05L228.79,337.55c-18.48,10.67-46.43,11.83-62.44,2.59L16.12,253.4C.12,244.16,2.13,228,20.61,217.35Z"/><path class="cls-85" d="M20.73,217.37,375,12.84C393.42,2.2,421.3,1,437.26,10.26L587.44,97c16,9.22,14,25.32-4.48,36L228.72,337.44c-18.44,10.65-46.32,11.8-62.28,2.59L16.26,253.32C.3,244.11,2.3,228,20.73,217.37Z"/><path class="cls-85" d="M20.86,217.38,375,12.91c18.38-10.62,46.19-11.77,62.12-2.58L587.25,97c15.92,9.2,13.93,25.25-4.46,35.87L228.64,337.34c-18.39,10.61-46.2,11.77-62.12,2.57L16.4,253.24C.48,244.05,2.48,228,20.86,217.38Z"/><path class="cls-86" d="M21,217.39,375.05,13c18.34-10.58,46.08-11.73,62-2.56L587.07,97c15.88,9.17,13.89,25.19-4.45,35.77L228.56,337.23c-18.34,10.59-46.07,11.74-61.95,2.57L16.54,253.16C.66,244,2.66,228,21,217.39Z"/><path class="cls-87" d="M21.12,217.4,375.09,13c18.29-10.56,46-11.71,61.79-2.56l150,86.6c15.84,9.15,13.85,25.12-4.44,35.68l-354,204.36c-18.29,10.56-45.95,11.71-61.79,2.57l-150-86.61C.85,243.94,2.83,228,21.12,217.4Z"/><path class="cls-88" d="M21.25,217.42,375.13,13.11C393.37,2.58,421,1.43,436.76,10.55l150,86.57c15.79,9.13,13.81,25.06-4.43,35.59L228.41,337c-18.24,10.53-45.84,11.67-61.64,2.55L16.83,253C1,243.88,3,228,21.25,217.42Z"/><path class="cls-89" d="M21.38,217.43,375.16,13.17c18.2-10.5,45.72-11.64,61.47-2.54L586.52,97.16c15.76,9.1,13.78,25-4.41,35.5L228.33,336.91c-18.19,10.51-45.72,11.65-61.47,2.55L17,252.92C1.21,243.82,3.19,227.93,21.38,217.43Z"/><path class="cls-90" d="M21.51,217.44,375.2,13.24c18.14-10.48,45.59-11.61,61.31-2.54L586.34,97.21c15.72,9.07,13.75,24.92-4.4,35.39L228.25,336.8c-18.14,10.48-45.59,11.62-61.31,2.55L17.11,252.84C1.39,243.77,3.36,227.92,21.51,217.44Z"/><path class="cls-91" d="M21.64,217.45,375.23,13.31c18.1-10.45,45.48-11.59,61.15-2.54L586.16,97.25c15.67,9,13.71,24.85-4.39,35.3L228.17,336.7c-18.09,10.45-45.47,11.58-61.15,2.53L17.25,252.76C1.57,243.71,3.54,227.9,21.64,217.45Z"/><path class="cls-92" d="M21.77,217.47l353.5-204.1c18.05-10.42,45.35-11.55,61-2.52L586,97.29c15.63,9,13.67,24.79-4.38,35.21L228.1,336.59c-18,10.42-45.36,11.55-61,2.53L17.39,252.68C1.76,243.65,3.72,227.89,21.77,217.47Z"/><path class="cls-93" d="M21.9,217.48l353.4-204c18-10.39,45.24-11.52,60.83-2.52L585.79,97.33c15.6,9,13.64,24.72-4.36,35.12L228,336.48c-18,10.4-45.24,11.53-60.83,2.53L17.53,252.6C1.94,243.6,3.89,227.87,21.9,217.48Z"/><path class="cls-94" d="M22,217.49l353.31-204C393.29,3.14,420.46,2,436,11l149.6,86.38c15.55,9,13.6,24.66-4.35,35l-353.32,204c-17.95,10.36-45.11,11.49-60.66,2.51L17.67,252.52C2.12,243.54,4.07,227.86,22,217.49Z"/><path class="cls-95" d="M22.16,217.5,375.37,13.57c17.91-10.34,45-11.46,60.51-2.5L585.43,97.41c15.51,9,13.56,24.59-4.34,34.93L227.87,336.27c-17.91,10.34-45,11.46-60.51,2.51L17.81,252.44C2.3,243.48,4.25,227.84,22.16,217.5Z"/><path class="cls-96" d="M22.29,217.52,375.41,13.64c17.86-10.31,44.88-11.43,60.35-2.5L585.25,97.45c15.46,8.93,13.52,24.53-4.34,34.84L227.79,336.16c-17.86,10.32-44.88,11.44-60.35,2.51L18,252.36C2.49,243.43,4.43,227.83,22.29,217.52Z"/><path class="cls-97" d="M22.41,217.53l353-203.82c17.81-10.29,44.75-11.4,60.18-2.5L585.06,97.49c15.43,8.9,13.5,24.46-4.32,34.74l-353,203.83c-17.81,10.28-44.76,11.4-60.18,2.49L18.09,252.28C2.67,243.37,4.6,227.81,22.41,217.53Z"/><path class="cls-98" d="M22.54,217.54,375.48,13.77c17.77-10.25,44.64-11.37,60-2.49L584.88,97.53c15.39,8.88,13.46,24.4-4.31,34.65L227.63,336c-17.76,10.26-44.63,11.37-60,2.49L18.23,252.2C2.85,243.31,4.78,227.8,22.54,217.54Z"/><path class="cls-99" d="M22.67,217.55,375.52,13.84C393.23,3.61,420,2.5,435.38,11.36L584.7,97.57c15.34,8.86,13.42,24.33-4.3,34.56L227.56,335.84c-17.72,10.23-44.52,11.34-59.86,2.49L18.37,252.12C3,243.26,5,227.78,22.67,217.55Z"/><path class="cls-100" d="M22.8,217.57,375.55,13.91C393.22,3.7,420,2.6,435.25,11.43L584.52,97.61c15.3,8.83,13.38,24.27-4.29,34.47L227.48,335.74c-17.67,10.2-44.4,11.31-59.7,2.47L18.52,252C3.21,243.2,5.13,227.77,22.8,217.57Z"/><path class="cls-101" d="M22.93,217.58,375.59,14C393.21,3.8,419.87,2.69,435.13,11.5L584.34,97.65c15.26,8.81,13.34,24.2-4.28,34.37L227.4,335.63c-17.62,10.17-44.28,11.28-59.54,2.47L18.66,252C3.4,243.14,5.31,227.75,22.93,217.58Z"/><path class="cls-102" d="M23.06,217.59,375.62,14C393.2,3.89,419.78,2.79,435,11.58L584.15,97.69c15.22,8.79,13.31,24.14-4.26,34.28L227.33,335.52C209.75,345.67,183.17,346.77,168,338L18.8,251.87C3.58,243.09,5.49,227.74,23.06,217.59Z"/><path class="cls-103" d="M23.19,217.6,375.66,14.11c17.53-10.12,44-11.22,59.22-2.46L584,97.73c15.18,8.76,13.28,24.07-4.25,34.19L227.25,335.42c-17.53,10.12-44,11.22-59.22,2.45L18.94,251.79C3.76,243,5.66,227.72,23.19,217.6Z"/><path class="cls-104" d="M23.32,217.62,375.7,14.17C393.17,4.08,419.61,3,434.75,11.72l149,86.05c15.14,8.74,13.24,24-4.24,34.1L227.17,335.31c-17.48,10.09-43.92,11.19-59,2.45l-149-86C3.94,243,5.84,227.71,23.32,217.62Z"/><path class="cls-105" d="M23.45,217.63,375.73,14.24c17.43-10.07,43.8-11.16,58.9-2.44l149,86c15.09,8.72,13.2,23.94-4.23,34L227.09,335.2c-17.43,10.07-43.79,11.16-58.89,2.45l-149-86C4.12,242.92,6,227.69,23.45,217.63Z"/><path class="cls-106" d="M23.58,217.64,375.77,14.3c17.38-10,43.68-11.12,58.73-2.43l148.92,86c15.06,8.69,13.17,23.87-4.21,33.91L227,335.1c-17.39,10-43.68,11.12-58.74,2.43l-148.92-86C4.31,242.86,6.19,227.68,23.58,217.64Z"/><path class="cls-107" d="M23.71,217.65,375.8,14.37c17.34-10,43.56-11.09,58.57-2.43l148.87,86c15,8.67,13.13,23.81-4.2,33.82L226.94,335c-17.34,10-43.56,11.1-58.57,2.43l-148.87-86C4.49,242.8,6.37,227.66,23.71,217.65Z"/><path class="cls-108" d="M23.84,217.67l352-203.23c17.29-10,43.44-11.07,58.41-2.42L583.06,97.93c15,8.65,13.09,23.74-4.19,33.73l-352,203.22c-17.29,10-43.44,11.07-58.41,2.43L19.64,251.39C4.67,242.75,6.55,227.65,23.84,217.67Z"/><path class="cls-109" d="M24,217.68,375.87,14.5c17.24-9.95,43.32-11,58.25-2.41L582.88,98c14.93,8.62,13,23.68-4.19,33.63L226.79,334.78c-17.24,10-43.32,11-58.25,2.41L19.78,251.31C4.85,242.69,6.72,227.63,24,217.68Z"/><path class="cls-110" d="M24.09,217.69,375.91,14.57c17.19-9.92,43.2-11,58.09-2.41L582.69,98c14.89,8.6,13,23.61-4.17,33.54L226.71,334.67c-17.19,9.93-43.2,11-58.09,2.41L19.92,251.23C5,242.63,6.9,227.62,24.09,217.69Z"/><path class="cls-111" d="M24.22,217.7,376,14.64c17.14-9.9,43.07-11,57.92-2.4L582.51,98.05c14.85,8.58,13,23.55-4.16,33.45L226.63,334.56c-17.14,9.9-43.08,11-57.93,2.41L20.06,251.15C5.22,242.58,7.08,227.6,24.22,217.7Z"/><path class="cls-112" d="M24.35,217.72,376,14.7c17.1-9.87,43-10.94,57.77-2.39L582.33,98.09c14.81,8.55,12.95,23.48-4.15,33.35l-351.63,203c-17.09,9.87-43,10.94-57.76,2.39L20.2,251.07C5.4,242.52,7.26,227.59,24.35,217.72Z"/><path class="cls-113" d="M24.48,217.73,376,14.77c17.05-9.84,42.84-10.91,57.6-2.39L582.15,98.13c14.76,8.53,12.91,23.42-4.14,33.26l-351.53,203c-17,9.84-42.84,10.91-57.61,2.39L20.35,251C5.58,242.46,7.43,227.57,24.48,217.73Z"/><path class="cls-114" d="M516.7,189.34l18-10.42c2.25-1.3,4.08-4.79,4.08-7.79h0c0-3-1.83-4.39-4.08-3.09l-18,10.42c-2.25,1.3-4.08,4.79-4.08,7.8h0C512.62,189.26,514.45,190.64,516.7,189.34Z"/><path class="cls-115" d="M515.08,188.77a2.23,2.23,0,0,0,1.09-.35L534.22,178c1.92-1.11,3.54-4.26,3.54-6.87,0-1.16-.36-2.51-1.39-2.51a2.35,2.35,0,0,0-1.09.34l-18,10.43c-1.92,1.11-3.54,4.25-3.54,6.87C513.69,187.42,514.05,188.77,515.08,188.77Z"/><path class="cls-116" d="M484.48,208l18-10.43c2.25-1.3,4.08-4.79,4.08-7.79h0c0-3-1.83-4.38-4.08-3.08l-18,10.42c-2.25,1.3-4.08,4.79-4.08,7.79h0C480.4,207.87,482.23,209.25,484.48,208Z"/><path class="cls-117" d="M482.86,207.37A2.26,2.26,0,0,0,484,207L502,196.6c1.92-1.11,3.54-4.25,3.54-6.87,0-1.16-.36-2.51-1.39-2.51a2.23,2.23,0,0,0-1.09.35L485,198c-1.92,1.11-3.55,4.26-3.55,6.87C481.46,206,481.83,207.37,482.86,207.37Z"/><path class="cls-118" d="M194.55,337.38h0c-8.29,0-16.11-1.88-22-5.29L28.22,248.77c-6.08-3.51-9.43-8.23-9.43-13.3s3.3-9.69,9.3-13.15L387.53,14.79c5.82-3.36,13.55-5.21,21.76-5.21s16.1,1.88,22,5.29L575.62,98.19c6.08,3.51,9.43,8.23,9.43,13.3s-3.31,9.69-9.3,13.15L216.31,332.17C210.49,335.53,202.76,337.38,194.55,337.38ZM409.29,11.63c-7.86,0-15.22,1.76-20.73,4.94L29.11,224.09c-5.33,3.09-8.27,7.13-8.27,11.38s3,8.39,8.41,11.52l144.32,83.32c5.59,3.23,13,5,21,5h0c7.85,0,15.22-1.76,20.73-4.94L574.72,122.87c5.34-3.08,8.27-7.12,8.27-11.38s-3-8.39-8.4-11.52L430.27,16.65C424.67,13.42,417.22,11.63,409.29,11.63Z"/><path class="cls-119" d="M510.36,75.09l-35.8-20.67c-1.41-.81-1.23-2.23.39-3.17h0a6.13,6.13,0,0,1,5.5-.23l35.8,20.67c1.41.81,1.23,2.23-.4,3.17h0A6.1,6.1,0,0,1,510.36,75.09Z"/><path class="cls-120" d="M314.46,172.51l-23.25-13.42-5.42,3.13L309,175.64Zm-10.57,8.36-27.72-16L270.74,168l27.73,16ZM338,186.09l-19-11-5.43,3.14,19,11Zm11.9,6.87-7.42-4.29L337,191.81l7.42,4.28ZM240.81,130l-17-9.8-5.42,3.14,17,9.8Zm-3.56,12.41-25.94-15-5.43,3.14,25.94,15Zm71.13,41.06L303,186.59l7.28,4.2,5.43-3.13ZM275.53,150l-30.24-17.46-5.43,3.13,30.25,17.47Zm11.2,6.47L280,152.62l-5.42,3.13,6.72,3.88Zm-15,5.77-14.56-8.4L251.7,157l14.56,8.41Zm-30-17.3-5.43,3.14,10.92,6.3,5.43-3.13Zm73,48.41,19.88,11.48,5.43-3.14-19.88-11.48Zm64.15,16.31-24.5-14.15-5.42,3.14,24.5,14.14Zm15.83,9.14-11.34-6.55-5.43,3.13L389.26,222ZM257.57,198.39l-14.16-8.18-4,2.33,14.17,8.18Zm4.45-3.53L283,207l4-2.33-21-12.16Zm38.49,11.57,17.76,10.37,4-2.33L304.54,204.1Zm-17.6,11.36,25.48,14.82,4-2.34L287,215.46Zm3.46-8.84L314,225.11l4-2.33L290.4,206.62Zm-88.73-51.26,8.13,4.69,4-2.33-8.12-4.69Zm21.81,18.69-5-2.89-4,2.33,5,2.89Zm4.52-8.15L213.14,162l-4,2.33,10.83,6.25Zm24,13.83L227.3,170.15l-4,2.34,20.62,11.9Zm20.33,33.36-31-18-4,2.33,31,18ZM212,155.2l22.5,13,4-2.33-22.5-13Zm54.79,31.63,30.42,17.67,4-2.33L270.79,184.5Zm1.8,44.18,4-2.33L250.81,216l-4,2.33Zm40.39,8-37.35-21.67-4,2.33,37.35,21.67Zm-41.48-56.44-17.3-10-4,2.33,17.29,10ZM216,185.12,198.46,175l-4,2.33,17.5,10.1Zm46.76,5.48L251.26,184l-4,2.33,11.46,6.61Zm-67.59-17.51-10.83-6.25-4,2.33,10.83,6.25ZM184.58,160.9l22.5,13,4-2.33-22.5-13ZM201,187.25l-22.5-13-4,2.33,22.5,13Zm39,1-17.29-10-4,2.33,17.29,10Zm7.41,25.8-14.17-8.18-4,2.33,14.16,8.18Zm-26.06.37,5.42,3.13,4-2.33-5.41-3.13Zm8.75,5.05L245,228l4-2.33-14.79-8.54Zm-21.52-23.18,17.29,10,4-2.33-17.29-10Zm-25.36-3.88,10.84,6.25,4-2.33-10.83-6.25Zm50.59,3-14.58-8.42-4,2.33,14.58,8.42Zm-33.56-4,5,2.89,4-2.33-5-2.89Zm146,36.79-4,2.33,17.12,9.72,4-2.33Zm-18.61,15.43,13,7.38,4-2.33L331.7,241.4Zm-19.11-.27,22.85,13,4-2.33-22.84-13ZM304.76,252l17.11,9.72,4-2.33-17.12-9.72Zm-32.87-19.09,29.53,17.17,4-2.33L275.92,230.6Zm-74.43-32.31,20.63,11.9,4-2.33-20.62-11.9Zm15.2-49.68L190.4,138.06l-4,2.33,22.27,12.88Zm109,67.78,17.29,10,4-2.33-17.3-10Zm-83.82-48.61,5,2.89,4-2.33-5-2.89Zm116,73.11-32.94-18.87-4,2.34,33,18.86Zm-24.68-3.34-13.31-7.68-4,2.33L325,242.21Zm-45.45-26.35-22.71-13.22-4,2.33,22.71,13.22Zm-85.27-60.09-17.27-10-4,2.33,17.26,10Zm-58.57,13.85L168.5,183.9l4-2.33L143.82,165Zm35.41,5.05-22.06-12.76-4,2.33,22.05,12.76Zm5.77-7.43L162.45,154.2l-4,2.33,18.52,10.72Zm4.32-8.26-13.51-7.83-4,2.33L181.24,159Zm-13.45,29.17,8.13,4.69,4-2.33-8.13-4.69Z"/><g class="cls-121"><path class="cls-122" d="M518.32,114.74l20.71,12a3.43,3.43,0,0,0,3.09,0,.94.94,0,0,0,0-1.78L521.4,113a3.4,3.4,0,0,0-3.09,0A.94.94,0,0,0,518.32,114.74Zm18.59,13.18-20.7-12a3.43,3.43,0,0,0-3.09,0,.94.94,0,0,0,0,1.78l20.71,12a3.38,3.38,0,0,0,3.08,0A.94.94,0,0,0,536.91,127.92Zm-5.19,3L511,119a3.38,3.38,0,0,0-3.08,0c-.85.49-.85,1.28,0,1.78l20.7,12a3.4,3.4,0,0,0,3.09,0A.94.94,0,0,0,531.72,130.92Z"/></g><polygon class="cls-119" points="379.28 131.93 409.84 212.16 518.23 149.57 379.28 131.93"/><polygon class="cls-119" points="406.54 211.74 375.98 131.51 237.03 113.87 406.54 211.74"/><polygon class="cls-119" points="378.55 130.03 517.51 147.67 347.99 49.8 378.55 130.03"/><polygon class="cls-119" points="236.31 111.97 375.26 129.61 344.7 49.39 236.31 111.97"/><path class="cls-123" d="M422.14,120.08l5.43-3.13-23.25-13.42-5.42,3.13Zm-32.86-10.77-5.43,3.13,27.73,16,5.42-3.14Zm56.38,24.35,5.43-3.13-19-11-5.43,3.13Zm9.91-.54-5.43,3.13L473,149.35l5.42-3.13Zm-34.09-5.22L416.06,131l7.28,4.21,5.43-3.14ZM387,93.49,347,70.58l-5.43,3.14,40,22.9Zm7.41,10.59,5.42-3.14-8.35-4.86-5.43,3.13Zm-24.18-5.77-5.43,3.13,14.56,8.41,5.43-3.13ZM350,86.72l-5.42,3.13,15.8,9,5.43-3.14Zm77.87,51.1L447.7,149.3l5.43-3.13-19.88-11.48Z"/></g></g></svg>