<svg id="Layer_1" data-name="Layer 1" xmlns="http://www.w3.org/2000/svg" viewBox="0 0 78.14 79.34"><defs><style>.cls-1{fill:#f2555c;}.cls-2{fill:#f13d3c;}</style></defs><path class="cls-1" d="M34.79,3.14V11a28.52,28.52,0,0,0-25,25.34H3.1A3.13,3.13,0,0,0,0,39.49H9.63a29.59,29.59,0,0,0,.17,3.14A28.52,28.52,0,0,0,34.79,68V76.2a3.12,3.12,0,0,0,3.1,3.14V61.86h0A22.24,22.24,0,0,1,15.83,39.49h0A22.24,22.24,0,0,1,37.89,17.11h0V0A3.12,3.12,0,0,0,34.79,3.14Z"/><path class="cls-1" d="M78.14,39.49a3.12,3.12,0,0,0-3.09-3.15H66a29.59,29.59,0,0,1,.17,3.14h12Z"/><path class="cls-1" d="M23.61,39.49A14.38,14.38,0,0,0,37.89,54V25A14.39,14.39,0,0,0,23.61,39.49Z"/><path class="cls-2" d="M0,39.49a3.12,3.12,0,0,0,3.1,3.14H9.8a29.59,29.59,0,0,1-.17-3.14Z"/><path class="cls-2" d="M66.14,39.49h0A29.59,29.59,0,0,0,66,36.35,28.51,28.51,0,0,0,41,11V3.14A3.12,3.12,0,0,0,37.89,0V17.11A22.25,22.25,0,0,1,60,39.49h0A22.25,22.25,0,0,1,37.89,61.86V79.34A3.12,3.12,0,0,0,41,76.2V68A28.51,28.51,0,0,0,66,42.62h9.08a3.12,3.12,0,0,0,3.09-3.14Z"/><path class="cls-2" d="M52.17,39.49A14.39,14.39,0,0,0,37.89,25V54A14.39,14.39,0,0,0,52.17,39.49Z"/></svg>